<svg width="24" height="24" viewBox="0 0 24 24" fill="none" xmlns="http://www.w3.org/2000/svg">
<rect width="24" height="24" rx="12" fill="white"/>
<path d="M19.8972 15.2604C16.4155 12.6917 14.3953 9.06618 14.3118 5.24468C14.309 5.10867 14.1984 5 14.0607 5H9.94236C9.80462 5 9.69401 5.10867 9.69123 5.24468C9.60775 9.06484 7.58409 12.6917 4.10233 15.2604C3.99172 15.3418 3.96668 15.4951 4.04737 15.6051L6.45643 18.8966C6.53852 19.0086 6.69852 19.0339 6.81052 18.9513C8.98792 17.3552 10.7389 15.4318 12.0001 13.2977C13.2614 15.4318 15.013 17.3552 17.1897 18.9513C17.3017 19.0339 17.4617 19.0086 17.5438 18.8966L19.9529 15.6051C20.0336 15.4951 20.0078 15.3418 19.8972 15.2604Z" fill="#FF875B"/>
</svg>
