<svg width="82" height="82" viewBox="0 0 82 82" fill="none" xmlns="http://www.w3.org/2000/svg">
<g opacity="0.3">
<rect width="82" height="82" rx="41" fill="white" fill-opacity="0.5"/>
<path d="M67.3077 51.9805C55.7091 43.3292 48.9793 31.1191 48.7013 18.2488C48.692 17.7908 48.3235 17.4248 47.8647 17.4248H34.1456C33.6867 17.4248 33.3183 17.7908 33.309 18.2488C33.0309 31.1146 26.2896 43.3292 14.691 51.9805C14.3225 52.2544 14.2391 52.7709 14.5079 53.1414L22.5331 64.2266C22.8065 64.6038 23.3395 64.6891 23.7126 64.4107C30.9661 59.0354 36.799 52.5576 41.0005 45.3702C45.202 52.5576 51.0372 59.0354 58.2884 64.4107C58.6615 64.6891 59.1945 64.6038 59.4679 64.2266L67.4931 53.1414C67.7619 52.7709 67.6762 52.2544 67.3077 51.9805Z" fill="#FF875B"/>
</g>
</svg>
