<svg width="15" height="16" viewBox="0 0 15 16" fill="none" xmlns="http://www.w3.org/2000/svg">
<path d="M7.50003 5.1875C6.94377 5.1875 6.4 5.35245 5.93749 5.66149C5.47497 5.97053 5.11449 6.40979 4.90162 6.9237C4.68874 7.43762 4.63305 8.00312 4.74157 8.54869C4.85009 9.09426 5.11795 9.5954 5.51129 9.98874C5.90462 10.3821 6.40576 10.6499 6.95134 10.7585C7.49691 10.867 8.06241 10.8113 8.57632 10.5984C9.09024 10.3855 9.52949 10.0251 9.83854 9.56254C10.1476 9.10003 10.3125 8.55626 10.3125 8C10.3118 7.25432 10.0152 6.5394 9.48791 6.01212C8.96063 5.48484 8.24571 5.18828 7.50003 5.1875ZM7.50003 9.875C7.12919 9.875 6.76668 9.76503 6.45833 9.55901C6.14999 9.35298 5.90967 9.06014 5.76775 8.71753C5.62584 8.37492 5.58871 7.99792 5.66105 7.63421C5.7334 7.27049 5.91198 6.9364 6.1742 6.67418C6.43643 6.41195 6.77052 6.23338 7.13423 6.16103C7.49795 6.08868 7.87495 6.12581 8.21756 6.26773C8.56017 6.40964 8.853 6.64996 9.05903 6.95831C9.26506 7.26665 9.37503 7.62916 9.37503 8C9.37503 8.49728 9.17748 8.97419 8.82585 9.32583C8.47422 9.67746 7.99731 9.875 7.50003 9.875ZM12.6563 8.12656C12.6586 8.04219 12.6586 7.95781 12.6563 7.87344L13.5305 6.78125C13.5763 6.72391 13.6081 6.6566 13.6231 6.58474C13.6382 6.51289 13.6362 6.43851 13.6172 6.36758C13.4739 5.82887 13.2595 5.31163 12.9797 4.82949C12.9431 4.7664 12.8922 4.71273 12.8312 4.67275C12.7702 4.63277 12.7006 4.60759 12.6282 4.59922L11.2383 4.44453C11.1805 4.38359 11.1219 4.325 11.0625 4.26875L10.8985 2.87539C10.89 2.80286 10.8648 2.7333 10.8247 2.67226C10.7846 2.61123 10.7308 2.5604 10.6676 2.52383C10.1853 2.24454 9.66809 2.03037 9.12952 1.88691C9.05855 1.86805 8.98414 1.86612 8.91228 1.88128C8.84043 1.89644 8.77314 1.92828 8.71585 1.97422L7.62659 2.84375C7.54221 2.84375 7.45784 2.84375 7.37346 2.84375L6.28128 1.97129C6.22393 1.92545 6.15662 1.89372 6.08477 1.87866C6.01292 1.8636 5.93853 1.86562 5.86761 1.88457C5.32898 2.02814 4.81178 2.24251 4.32952 2.52207C4.26642 2.55871 4.21275 2.60957 4.17278 2.6706C4.1328 2.73163 4.10762 2.80115 4.09925 2.87363L3.94456 4.26582C3.88362 4.32402 3.82503 4.38262 3.76878 4.4416L2.37542 4.60156C2.30289 4.61 2.23333 4.63527 2.17229 4.67535C2.11125 4.71543 2.06042 4.76922 2.02385 4.83242C1.74457 5.31474 1.5304 5.83194 1.38694 6.37051C1.36807 6.44148 1.36614 6.51589 1.38131 6.58775C1.39647 6.6596 1.42831 6.72689 1.47425 6.78418L2.34378 7.87344C2.34378 7.95781 2.34378 8.04219 2.34378 8.12656L1.47132 9.21875C1.42548 9.2761 1.39375 9.34341 1.37869 9.41526C1.36362 9.48711 1.36565 9.5615 1.3846 9.63242C1.52791 10.1711 1.74229 10.6884 2.0221 11.1705C2.05873 11.2336 2.10959 11.2873 2.17063 11.3273C2.23166 11.3672 2.30118 11.3924 2.37366 11.4008L3.7635 11.5555C3.82171 11.6164 3.8803 11.675 3.93929 11.7313L4.10159 13.1246C4.11003 13.1971 4.13529 13.2667 4.17538 13.3277C4.21546 13.3888 4.26924 13.4396 4.33245 13.4762C4.81477 13.7555 5.33197 13.9696 5.87053 14.1131C5.94151 14.132 6.01592 14.1339 6.08777 14.1187C6.15963 14.1036 6.22691 14.0717 6.28421 14.0258L7.37346 13.1563C7.45784 13.1586 7.54221 13.1586 7.62659 13.1563L8.71878 14.0305C8.77612 14.0763 8.84343 14.108 8.91528 14.1231C8.98714 14.1382 9.06152 14.1361 9.13245 14.1172C9.67116 13.9739 10.1884 13.7595 10.6705 13.4797C10.7336 13.4431 10.7873 13.3922 10.8273 13.3312C10.8673 13.2701 10.8924 13.2006 10.9008 13.1281L11.0555 11.7383C11.1164 11.6805 11.175 11.6219 11.2313 11.5625L12.6246 11.3984C12.6972 11.39 12.7667 11.3647 12.8278 11.3247C12.8888 11.2846 12.9396 11.2308 12.9762 11.1676C13.2555 10.6853 13.4697 10.1681 13.6131 9.62949C13.632 9.55852 13.6339 9.48411 13.6187 9.41226C13.6036 9.3404 13.5717 9.27311 13.5258 9.21582L12.6563 8.12656ZM11.7129 7.7457C11.7229 7.91509 11.7229 8.08491 11.7129 8.2543C11.7059 8.37026 11.7423 8.48469 11.8149 8.57539L12.6463 9.61426C12.5509 9.91746 12.4288 10.2116 12.2813 10.4932L10.9571 10.6432C10.8417 10.656 10.7353 10.7111 10.6582 10.7979C10.5454 10.9247 10.4253 11.0448 10.2985 11.1576C10.2117 11.2346 10.1566 11.3411 10.1438 11.4564L9.99671 12.7795C9.71516 12.927 9.42103 13.0492 9.1178 13.1445L8.07835 12.3131C7.99517 12.2466 7.89185 12.2105 7.78538 12.2105H7.75725C7.58787 12.2205 7.41805 12.2205 7.24866 12.2105C7.13269 12.2036 7.01827 12.2399 6.92757 12.3125L5.88577 13.1445C5.58257 13.0491 5.28844 12.927 5.00686 12.7795L4.85686 11.457C4.84406 11.3417 4.78895 11.2352 4.70218 11.1582C4.57533 11.0454 4.4552 10.9253 4.34241 10.7984C4.26538 10.7117 4.1589 10.6566 4.04358 10.6438L2.72053 10.4961C2.57299 10.2146 2.45083 9.92042 2.3555 9.61719L3.18694 8.57773C3.25954 8.48704 3.29587 8.37261 3.28889 8.25664C3.27893 8.08726 3.27893 7.91743 3.28889 7.74805C3.29587 7.63208 3.25954 7.51765 3.18694 7.42695L2.3555 6.38574C2.4509 6.08254 2.57306 5.78841 2.72053 5.50684L4.043 5.35684C4.15832 5.34404 4.26479 5.28892 4.34182 5.20215C4.45461 5.0753 4.57474 4.95517 4.70159 4.84238C4.7887 4.7653 4.84405 4.65858 4.85686 4.54297L5.00393 3.22051C5.28548 3.07296 5.57961 2.9508 5.88284 2.85547L6.92229 3.68691C7.01299 3.75951 7.12742 3.79585 7.24339 3.78887C7.41277 3.77891 7.5826 3.77891 7.75198 3.78887C7.86795 3.79585 7.98238 3.75951 8.07307 3.68691L9.11429 2.85547C9.41749 2.95087 9.71161 3.07303 9.99319 3.22051L10.1432 4.54297C10.156 4.65829 10.2111 4.76477 10.2979 4.8418C10.4247 4.95458 10.5449 5.07471 10.6576 5.20156C10.7347 5.28833 10.8412 5.34345 10.9565 5.35625L12.2795 5.50332C12.4271 5.78487 12.5492 6.079 12.6446 6.38223L11.8131 7.42168C11.7398 7.51314 11.7034 7.62875 11.7112 7.7457H11.7129Z" fill="#E2E2E2"/>
</svg>
