<svg width="137" height="98" viewBox="0 0 137 98" fill="none" xmlns="http://www.w3.org/2000/svg">
<path d="M84.8555 1.21771C84.8555 1.21771 79.9857 -1.66451 66.1507 1.43951C52.3159 4.54354 33.6111 19.0654 29.6267 40.2388C25.6424 61.4122 22.5433 79.7032 22.5433 79.7032L20.6617 92.1189L49.1062 95.2229C49.1062 95.2229 50.9877 67.0656 53.5333 54.2065C53.5333 54.2065 66.372 51.4351 83.3059 54.7607L80.3176 58.308L89.9466 56.0908L87.2902 52.7652L85.1874 53.8737C85.1874 53.8737 71.2418 49.4395 54.1973 50.8806C54.1973 50.8806 58.0712 5.98447 84.8555 1.21771Z" fill="#434672"/>
<path d="M26.7491 56.0911C26.7491 56.0911 11.3646 60.747 6.93752 64.9595C2.51042 69.172 -3.68775 76.821 4.8347 84.9134C10.3687 89.0151 16.4561 91.1213 16.4561 91.1213L21.5473 87.6848L22.5434 79.7032C22.5434 79.7032 18.891 74.0496 21.1046 69.8371C23.3182 65.6246 25.3104 64.5161 25.3104 64.5161L26.7491 56.0911Z" fill="#434672"/>
<path d="M128.352 69.6151L126.36 74.6037L129.57 73.9386C129.57 73.9386 133.554 77.2643 130.455 82.3636C127.356 87.463 111.75 89.4584 90.9428 88.1281C70.1352 86.7978 63.7157 85.4675 63.7157 85.4675L50.6555 96.3313C50.6555 96.3313 64.1584 98.2158 93.4883 96.7747C122.818 95.3336 130.234 90.5669 133.333 85.4675C136.432 80.3681 136.21 77.7077 132.669 73.606L135.546 72.8299L128.352 69.6151Z" fill="#434672"/>
<path d="M52.9448 56.1212C54.0135 49.8222 55.2226 43.5347 56.6929 37.3166C58.0112 31.742 59.6244 26.1916 62.0606 20.9939C66.4761 11.5722 74.2932 3.13585 84.8182 0.931322C94.6253 -1.12269 103.767 3.82004 109.596 11.5623C117.501 22.0621 118.198 35.7758 118.786 48.4076C118.799 48.7068 118.291 48.7066 118.275 48.4076C117.67 37.1927 117.054 25.2612 111.299 15.3011C106.408 6.83635 97.6971 0.0940882 87.5072 1.023C76.6509 2.01256 68.0461 10.3136 63.2765 19.6235C58.0265 29.871 56.0788 41.7231 54.1171 52.959C51.6941 66.8352 50.125 80.8586 49.4044 94.9264C49.3813 95.3771 48.6112 95.3773 48.6355 94.9264C49.3388 81.9218 50.7661 68.9616 52.9448 56.1212Z" fill="#434672"/>
<path d="M20.4224 92.3671C29.7101 93.1108 39.0184 93.7525 48.2875 94.7028C48.6072 94.7356 48.622 95.188 48.2875 95.1692C38.9912 94.6483 29.7045 93.8149 20.4224 93.0862C19.9216 93.0469 19.9148 92.3264 20.4224 92.3671Z" fill="#434672"/>
<path d="M20.1666 92.101C21.7627 81.6479 23.6174 71.2294 25.3862 60.8045C26.9845 51.3837 28.2653 41.7567 31.4874 32.7186C34.3202 24.7724 38.8485 17.638 45.1826 12.0342C51.3126 6.61101 58.81 2.75603 66.8335 1.11315C73.3113 -0.21336 80.0076 -0.163372 86.4256 1.23623C86.1465 1.24489 85.8673 1.27647 85.5897 1.33116C71.9359 -1.14336 57.5341 2.35681 46.6888 11.4922C40.2672 16.9015 35.5314 23.8935 32.6051 31.7507C29.4298 40.2768 28.1515 49.3638 26.7507 58.3092C24.9714 69.6709 23.2907 81.0574 21.3238 92.3885C21.2052 93.0718 20.0587 92.809 20.1666 92.101Z" fill="#434672"/>
<path d="M82.6676 1.65686C89.1078 2.64569 94.8933 6.56998 99.1235 11.4194C104.41 17.48 107.339 25.1849 108.828 33.0131C109.735 37.7826 110.175 42.6197 110.453 47.4625C110.457 47.5386 110.33 47.5375 110.324 47.4625C109.031 32.1437 105.858 14.6651 91.7775 5.834C88.6218 3.85471 85.1957 2.63541 81.5391 2.09741C81.9198 1.95916 82.2966 1.81261 82.6676 1.65686Z" fill="#434672"/>
<path d="M118.481 48.127C119.882 48.2394 121.301 48.7645 122.632 49.186C122.643 49.1894 122.642 49.2065 122.629 49.2051C121.25 49.0482 119.74 48.9605 118.426 48.4961C118.221 48.4235 118.236 48.1073 118.481 48.127Z" fill="#434672"/>
<path d="M106.517 46.0287C107.907 46.1512 109.525 46.4183 110.824 46.9384C110.853 46.9497 110.834 46.986 110.81 46.9867C109.413 47.0219 107.809 46.7196 106.469 46.3532C106.277 46.3007 106.31 46.0104 106.517 46.0287Z" fill="#434672"/>
<path d="M107.58 46.2699C108.925 47.9718 109.944 50.0829 111.073 51.9382C112.126 53.6695 113.221 55.3925 114.141 57.2014C115.272 55.8951 116.598 54.7173 117.835 53.5175C119.254 52.1426 120.637 50.7122 122.161 49.4535C122.171 49.4451 122.195 49.4561 122.184 49.4692C121.021 50.8717 119.705 52.1423 118.434 53.4451C117.095 54.8184 115.78 56.3072 114.313 57.5463C114.339 57.5974 114.365 57.6476 114.39 57.6986C114.408 57.7354 114.357 57.7569 114.334 57.728C114.303 57.6885 114.273 57.6479 114.242 57.6082C114.238 57.6116 114.234 57.6152 114.23 57.6187C114.102 57.7259 113.812 57.5847 113.948 57.4225C113.974 57.3913 114.002 57.3611 114.028 57.3301C112.778 55.6928 111.683 53.9335 110.563 52.2071C109.38 50.3837 107.913 48.5466 106.966 46.5937C106.77 46.1887 107.328 45.9512 107.58 46.2699Z" fill="#434672"/>
<path d="M106.371 57.2404C107.323 57.1273 108.423 57.3888 109.377 57.4814C110.418 57.5825 111.459 57.6836 112.499 57.7846C112.881 57.8216 112.888 58.3725 112.5 58.3353C111.311 58.2212 110.121 58.1072 108.932 57.9931C108.406 57.9427 107.665 57.7332 107.147 57.822C106.548 57.6612 106.223 58.0065 106.173 58.8577C106.496 58.995 106.823 59.1214 107.155 59.2369C109.199 59.9876 111.31 60.5419 113.462 60.876C114.609 61.0541 115.768 61.1751 116.927 61.2361C117.488 61.2657 118.049 61.2789 118.611 61.2816C118.993 61.2834 120.072 61.43 120.353 61.1027C121.483 59.7885 117.882 59.2425 117.354 59.1048C116.237 58.8131 115.135 58.4889 114.033 58.1449C113.997 58.1337 114.014 58.0888 114.048 58.0949C115.931 58.4279 117.865 58.7557 119.704 59.2844C120.384 59.4797 121.408 59.9443 121.205 60.8377C120.995 61.764 119.775 61.8075 119.033 61.8408C117.322 61.9173 115.594 61.8166 113.898 61.5863C112.09 61.3406 110.303 60.943 108.561 60.3982C107.63 60.1073 105.749 59.7761 105.23 58.846C104.763 58.0079 105.601 57.3319 106.371 57.2404Z" fill="#434672"/>
<path d="M116.941 56.8632C118.583 57.1029 120.164 57.4569 121.698 58.1117C122.892 58.6213 124.298 59.2463 125.142 60.2761C125.761 61.0309 125.887 62.0059 125.248 62.7963C124.358 63.8972 122.908 63.8279 121.638 63.6893C121.409 63.6642 121.395 63.3483 121.638 63.3525C122.792 63.372 124.691 63.3905 125.085 61.974C125.478 60.5634 123.699 59.6624 122.727 59.1184C120.924 58.1092 118.955 57.3239 116.928 56.9071C116.896 56.9002 116.911 56.8589 116.941 56.8632Z" fill="#434672"/>
<path d="M103.527 55.1206C106.185 54.8185 108.963 55.386 111.503 56.1159C111.579 56.1377 111.544 56.2393 111.471 56.222C109.397 55.7359 107.253 55.5509 105.126 55.6116C104.102 55.6408 102.803 55.5964 101.963 56.2978C100.599 57.4382 101.882 58.7845 103.01 59.3623C106.489 61.1447 110.323 62.1133 114.161 62.7264C114.443 62.7715 114.372 63.1973 114.094 63.1782C111.476 62.999 108.903 62.4248 106.43 61.551C105.244 61.1321 104.07 60.655 102.951 60.08C102.122 59.654 101.276 59.1488 100.892 58.2542C100.112 56.4354 101.973 55.2973 103.527 55.1206Z" fill="#434672"/>
<path d="M117.434 56.0116C119.829 55.7643 122.513 56.652 124.703 57.5444C125.937 58.0474 127.117 58.6609 128.252 59.3596C129.125 59.8968 130.092 60.4558 130.722 61.2884C131.78 62.6873 131.494 64.4867 129.823 65.1774C128.735 65.6276 127.432 65.6821 126.271 65.777C124.735 65.9027 123.206 65.9137 121.668 65.8364C121.328 65.8193 121.323 65.3583 121.668 65.3505C123.908 65.2998 126.22 65.2112 128.432 64.8265C129.485 64.6435 130.713 64.2771 130.764 62.977C130.811 61.7918 129.825 60.9431 128.963 60.308C127.242 59.0398 125.253 58.0844 123.232 57.4029C121.323 56.7589 119.354 56.5935 117.422 56.0881C117.372 56.075 117.389 56.0163 117.434 56.0116Z" fill="#434672"/>
<path d="M96.5621 55.9191C97.4591 54.7056 99.0885 54.4284 100.478 54.1857C104.201 53.535 108.118 53.5415 111.782 54.5246C112.073 54.6027 111.935 54.9742 111.66 54.9243C108.431 54.3407 105.189 54.0745 101.924 54.5224C100.376 54.7348 97.9894 54.9296 97.0601 56.3725C95.9152 58.15 97.9454 59.6806 99.3058 60.4083C101.916 61.8045 104.688 62.9619 107.53 63.787C110.363 64.6095 113.235 64.9854 116.143 65.4128C116.209 65.4225 116.188 65.5131 116.127 65.5146C112.462 65.5981 108.697 64.7396 105.222 63.6309C103.631 63.1234 102.073 62.523 100.564 61.807C99.2006 61.1604 97.5391 60.4554 96.6514 59.1643C95.9703 58.1731 95.8227 56.9193 96.5621 55.9191Z" fill="#434672"/>
<path d="M108.451 58.3116C108.777 58.2154 109.087 58.1521 109.423 58.099C109.485 58.0893 109.543 58.1338 109.554 58.1831C111.351 58.1219 113.175 58.2618 114.934 58.6632C116.127 58.6815 117.344 59.1872 118.351 59.8565C118.393 59.8682 118.435 59.8787 118.477 59.8904C118.637 59.9356 118.721 60.031 118.746 60.1372C118.896 60.2489 119.041 60.3628 119.177 60.479C119.337 60.615 119.193 60.8404 119.011 60.8406C117.007 60.844 115.023 60.6586 113.054 60.2821C112.062 60.0924 110.925 59.926 109.915 59.5432C109.65 59.4757 109.385 59.408 109.122 59.3332C108.903 59.2713 108.815 59.1311 108.817 58.988C108.656 58.8791 108.502 58.7607 108.358 58.6291C108.238 58.5196 108.311 58.3531 108.451 58.3116Z" fill="#434672"/>
<path d="M122.929 61.3687C125.238 61.7954 127.536 62.2856 129.838 62.7469C131.918 63.1637 134.326 63.3532 136.273 64.2113C136.366 64.2523 136.309 64.373 136.224 64.3743C134.085 64.4052 131.783 63.6491 129.691 63.2261C127.391 62.761 125.082 62.3242 122.789 61.8246C122.455 61.7519 122.614 61.3105 122.929 61.3687Z" fill="#434672"/>
<path d="M91.6887 55.0868C95.6658 55.583 99.6261 56.8443 103.528 57.7442C103.555 57.7505 103.542 57.7868 103.516 57.7818C101.525 57.3948 99.5261 57.0464 97.5355 56.6531C95.5684 56.2645 93.5133 55.9774 91.595 55.3929C91.3701 55.3243 91.4798 55.0606 91.6887 55.0868Z" fill="#434672"/>
<path d="M108.092 68.5292C108.384 67.4276 109.099 66.3694 109.63 65.3626C110.232 64.2191 110.811 63.0181 111.575 61.9743C111.605 61.9328 111.691 61.9526 111.673 62.0116C111.329 63.1159 110.77 64.1686 110.271 65.2102C109.728 66.3461 109.242 67.6865 108.46 68.6691C108.341 68.8191 108.033 68.7548 108.092 68.5292Z" fill="#434672"/>
<path d="M55.4437 96.2499C58.8014 96.3806 62.1527 96.7255 65.5116 96.876C68.7978 97.0233 72.0869 97.1004 75.3763 97.1076C82.0298 97.122 88.6832 96.8471 95.314 96.2962C101.978 95.7424 108.62 94.9034 115.211 93.7713C120.662 92.8351 126.714 91.8683 130.971 88.0184C134.885 84.4785 136.557 77.3432 132.17 73.4799C132.132 73.446 132.188 73.4005 132.224 73.4275C135.89 76.1721 135.904 81.3855 133.999 85.1892C131.537 90.1072 125.898 92.2813 120.866 93.4739C114.27 95.0375 107.433 95.8967 100.702 96.6349C93.5676 97.4174 86.3976 97.8623 79.221 97.9726C75.1846 98.0347 71.1467 97.9914 67.1128 97.8423C63.203 97.6979 59.2308 97.59 55.3516 97.0619C54.8465 96.9932 54.9426 96.2305 55.4437 96.2499Z" fill="#434672"/>
<path d="M52.0811 94.4315C52.8981 93.4977 54.018 92.767 54.9811 91.9873C55.9683 91.188 56.959 90.3935 57.9542 89.6043C59.4911 88.3855 61.0461 87.0051 62.7283 85.9357C62.4424 85.6688 62.721 85.0707 63.2372 85.1442C73.9091 86.6618 84.6699 87.507 95.4483 87.6615C100.747 87.7374 106.048 87.6472 111.341 87.39C113.949 87.2633 116.559 87.1152 119.16 86.8843C121.442 86.6818 123.769 86.3685 125.902 85.4907C128.225 84.5351 130.097 82.9059 130.959 80.5048C131.723 78.3763 131.571 75.7419 129.815 74.1403C129.791 74.1185 129.827 74.0885 129.849 74.1069C132.735 76.4732 132.249 80.7662 130.048 83.4627C127.229 86.917 122.206 87.451 118.074 87.7789C106.322 88.7117 94.4937 88.797 82.7284 88.0607C76.2399 87.6546 69.7693 86.9955 63.3302 86.0987C61.8404 87.714 59.9644 89.0757 58.2987 90.4664C57.3836 91.2306 56.4622 91.987 55.5393 92.7419C54.5989 93.5111 53.6823 94.4189 52.6253 95.0229C52.2335 95.2464 51.7559 94.8031 52.0811 94.4315Z" fill="#434672"/>
<path d="M128.696 69.5034C130.912 70.532 133.376 71.4454 135.427 72.7884C135.652 72.7601 135.716 73.1146 135.445 73.1281C134.408 73.1805 133.395 73.4687 132.355 73.4897C132.322 73.4904 132.317 73.4483 132.347 73.4388C133.293 73.1397 134.292 73.0774 135.247 72.8283C132.943 72.0877 130.7 70.8013 128.526 69.7662C128.327 69.672 128.514 69.4191 128.696 69.5034Z" fill="#434672"/>
<path d="M126.349 74.3857C126.527 73.5223 126.912 72.6886 127.219 71.8657C127.509 71.0896 127.741 70.264 128.155 69.5454C128.255 69.3722 128.545 69.4816 128.504 69.6778C128.312 70.5846 127.863 71.4654 127.522 72.3267C127.255 72.9996 127.025 73.7018 126.679 74.3393C127.677 74.1969 128.677 74.0963 129.684 74.0312C129.712 74.0294 129.718 74.0692 129.691 74.0757C128.616 74.3261 127.536 74.5362 126.443 74.6918C126.232 74.7216 126.123 74.4207 126.349 74.3857Z" fill="#434672"/>
<path d="M53.607 53.7176C58.0489 53.1435 62.5311 52.8832 67.0095 52.9382C72.7437 53.0088 78.474 53.5911 84.0883 54.7524C83.8771 54.795 83.6665 54.8511 83.4589 54.9159C83.4202 54.928 83.3876 54.9459 83.3528 54.9618C73.4748 53.2767 63.4254 52.9695 53.4612 54.3035C53.5124 54.1088 53.5612 53.9136 53.607 53.7176Z" fill="#434672"/>
<path d="M25.7205 63.136C25.5889 63.4829 25.4992 63.8438 25.4437 64.2138C23.9492 65.6313 22.7057 67.2999 21.8619 69.2803C20.6906 72.0284 20.4796 75.1502 21.7408 77.9041C22.0426 78.5633 22.4165 79.1826 22.85 79.7494C22.8019 79.9936 22.7587 80.2402 22.719 80.4883C21.1508 78.6718 20.2151 76.2583 20.2236 73.8608C20.2389 69.5806 22.5738 65.8673 25.7205 63.136Z" fill="#434672"/>
<path d="M54.1469 50.6887C55.1291 50.6397 56.112 50.6026 57.0951 50.5798C61.8394 50.4701 66.5908 50.6672 71.3092 51.1753C75.9261 51.6726 80.7721 52.2501 85.2028 53.684C85.296 53.7142 85.3549 53.7652 85.3862 53.8241C85.6019 53.5986 85.8805 53.4396 86.1416 53.2687C86.5335 53.0118 86.9337 52.7133 87.3633 52.5256C87.5217 52.4565 87.7399 52.5611 87.7925 52.7005C88.7327 53.6598 89.4234 54.9419 90.164 56.0541C90.2472 56.179 90.1564 56.3279 90.025 56.3622C87.1995 57.0992 84.3646 57.8887 81.4994 58.4564C81.1501 58.5255 80.9786 58.0533 81.3446 57.9504C84.0624 57.1858 86.8487 56.6196 89.6081 56.0213C88.9672 55.0074 88.2143 53.9647 87.7781 52.8519C87.7622 52.8777 87.7395 52.9034 87.7071 52.9277C87.3541 53.1927 86.9389 53.3838 86.5474 53.586C86.1695 53.7809 85.7879 54.0253 85.3614 54.0847C85.2997 54.1724 85.1875 54.2329 85.0423 54.2091C81.1568 53.5692 77.3404 52.6389 73.4267 52.1299C69.4279 51.6099 65.3979 51.3222 61.3662 51.2536C58.9262 51.2121 56.4852 51.2534 54.0483 51.3747C54.0829 51.146 54.1157 50.9174 54.1469 50.6887Z" fill="#434672"/>
<path d="M9.05386 63.1447C12.5732 60.9222 16.5045 59.2999 20.3777 57.8109C22.3922 57.0365 24.4295 56.3232 26.4858 55.6699C26.382 55.8937 26.3305 56.1244 26.351 56.3503C22.3894 57.6052 18.5001 59.0889 14.7163 60.8061C8.132 63.7943 0.0106564 69.0795 0.88728 77.4643C1.69507 85.1934 9.93264 88.39 16.0692 91.0945C17.897 89.9398 19.8042 88.8883 21.6908 87.8289C21.6724 88.0914 21.6591 88.3545 21.6499 88.6182C19.8197 89.7566 17.9821 90.9044 16.0908 91.9243C15.683 92.1441 15.2859 91.5942 15.7027 91.3259C15.8052 91.2598 15.9094 91.1957 16.0124 91.1304C10.4529 89.413 3.7624 86.3936 1.27415 80.7385C-1.81268 73.7236 3.31445 66.7694 9.05386 63.1447Z" fill="#434672"/>
<path d="M80.0289 58.1626C80.5475 57.5001 81.2607 56.9664 81.8818 56.4007C82.4955 55.8417 83.1166 55.2407 83.823 54.801C83.8585 54.779 83.912 54.8198 83.8869 54.8586C83.4658 55.5111 82.8858 56.0793 82.3497 56.6372C81.7582 57.2529 81.1868 57.9821 80.5031 58.4922C80.2869 58.6535 79.8015 58.453 80.0289 58.1626Z" fill="#434672"/>
<path d="M82.6677 1.65745C82.6677 1.65745 93.3982 -2.01128 104.445 6.15945C115.492 14.3302 118.581 35.4539 118.481 48.1278L122.632 49.1866L114.23 57.6189L106.966 46.5939L110.223 46.6731C110.223 46.6731 109.714 28.1186 102.575 16.5434C95.4373 4.96812 84.8538 2.26223 82.6677 1.65745Z" fill="#0073B3"/>
</svg>
