<svg width="136" height="98" viewBox="0 0 136 98" fill="none" xmlns="http://www.w3.org/2000/svg">
<path d="M84.5222 1.21771C84.5222 1.21771 79.6524 -1.66451 65.8174 1.43951C51.9826 4.54354 33.2778 19.0654 29.2934 40.2388C25.3091 61.4122 22.21 79.7032 22.21 79.7032L20.3284 92.1189L48.7729 95.2229C48.7729 95.2229 50.6544 67.0656 53.2 54.2065C53.2 54.2065 66.0387 51.4351 82.9726 54.7607L79.9843 58.308L89.6133 56.0908L86.957 52.7652L84.8541 53.8737C84.8541 53.8737 70.9085 49.4395 53.864 50.8806C53.864 50.8806 57.7379 5.98447 84.5222 1.21771Z" fill="#434672"/>
<path d="M26.4158 56.0911C26.4158 56.0911 11.0313 60.747 6.60423 64.9595C2.17714 69.172 -4.02103 76.821 4.50142 84.9134C10.0354 89.0151 16.1228 91.1213 16.1228 91.1213L21.214 87.6848L22.2101 79.7032C22.2101 79.7032 18.5577 74.0496 20.7713 69.8371C22.985 65.6246 24.9771 64.5161 24.9771 64.5161L26.4158 56.0911Z" fill="#434672"/>
<path d="M128.019 69.6151L126.027 74.6037L129.237 73.9386C129.237 73.9386 133.221 77.2643 130.122 82.3636C127.023 87.463 111.417 89.4584 90.6095 88.1281C69.8019 86.7978 63.3824 85.4675 63.3824 85.4675L50.3223 96.3313C50.3223 96.3313 63.8252 98.2158 93.1551 96.7747C122.485 95.3336 129.901 90.5669 132.999 85.4675C136.098 80.3681 135.877 77.7077 132.335 73.606L135.213 72.8299L128.019 69.6151Z" fill="#434672"/>
<path d="M52.6115 56.1212C53.6802 49.8222 54.8893 43.5347 56.3596 37.3166C57.6779 31.742 59.2911 26.1916 61.7273 20.9939C66.1429 11.5722 73.9599 3.13585 84.485 0.931322C94.292 -1.12269 103.433 3.82004 109.262 11.5623C117.167 22.0621 117.865 35.7758 118.452 48.4076C118.466 48.7068 117.958 48.7066 117.942 48.4076C117.337 37.1927 116.72 25.2612 110.966 15.3011C106.075 6.83635 97.3639 0.0940882 87.1739 1.023C76.3177 2.01256 67.7129 10.3136 62.9432 19.6235C57.6932 29.871 55.7455 41.7231 53.7838 52.959C51.3608 66.8352 49.7917 80.8586 49.0711 94.9264C49.048 95.3771 48.2779 95.3773 48.3022 94.9264C49.0055 81.9218 50.4328 68.9616 52.6115 56.1212Z" fill="#434672"/>
<path d="M20.0891 92.3671C29.3768 93.1108 38.6851 93.7525 47.9542 94.7028C48.2739 94.7356 48.2887 95.188 47.9542 95.1692C38.6579 94.6483 29.3712 93.8149 20.0891 93.0862C19.5884 93.0469 19.5815 92.3264 20.0891 92.3671Z" fill="#434672"/>
<path d="M19.8333 92.101C21.4295 81.6479 23.2841 71.2294 25.0529 60.8045C26.6512 51.3837 27.932 41.7567 31.1541 32.7186C33.9869 24.7724 38.5153 17.638 44.8493 12.0342C50.9794 6.61101 58.4767 2.75603 66.5002 1.11315C72.978 -0.21336 79.6743 -0.163372 86.0923 1.23623C85.8132 1.24489 85.5341 1.27647 85.2564 1.33116C71.6027 -1.14336 57.2008 2.35681 46.3555 11.4922C39.9339 16.9015 35.1981 23.8935 32.2718 31.7507C29.0965 40.2768 27.8183 49.3638 26.4175 58.3092C24.6381 69.6709 22.9575 81.0574 20.9905 92.3885C20.8719 93.0718 19.7254 92.809 19.8333 92.101Z" fill="#434672"/>
<path d="M82.3343 1.65686C88.7745 2.64569 94.56 6.56998 98.7902 11.4194C104.077 17.48 107.005 25.1849 108.494 33.0131C109.402 37.7826 109.841 42.6197 110.12 47.4625C110.124 47.5386 109.997 47.5375 109.99 47.4625C108.698 32.1437 105.524 14.6651 91.4442 5.834C88.2885 3.85471 84.8624 2.63541 81.2058 2.09741C81.5865 1.95916 81.9633 1.81261 82.3343 1.65686Z" fill="#434672"/>
<path d="M118.148 48.127C119.548 48.2394 120.967 48.7645 122.299 49.186C122.31 49.1894 122.308 49.2065 122.296 49.2051C120.917 49.0482 119.407 48.9605 118.093 48.4961C117.887 48.4235 117.903 48.1073 118.148 48.127Z" fill="#434672"/>
<path d="M106.184 46.0287C107.574 46.1512 109.192 46.4183 110.491 46.9384C110.519 46.9497 110.501 46.986 110.476 46.9867C109.079 47.0219 107.476 46.7196 106.135 46.3532C105.943 46.3007 105.977 46.0104 106.184 46.0287Z" fill="#434672"/>
<path d="M107.247 46.2699C108.592 47.9718 109.611 50.0829 110.74 51.9382C111.793 53.6695 112.888 55.3925 113.807 57.2014C114.939 55.8951 116.264 54.7173 117.502 53.5175C118.92 52.1426 120.304 50.7122 121.828 49.4535C121.838 49.4451 121.861 49.4561 121.85 49.4692C120.688 50.8717 119.372 52.1423 118.101 53.4451C116.761 54.8184 115.447 56.3072 113.98 57.5463C114.005 57.5974 114.032 57.6476 114.057 57.6986C114.075 57.7354 114.024 57.7569 114.001 57.728C113.97 57.6885 113.94 57.6479 113.909 57.6082C113.905 57.6116 113.901 57.6152 113.897 57.6187C113.768 57.7259 113.479 57.5847 113.615 57.4225C113.641 57.3913 113.669 57.3611 113.695 57.3301C112.445 55.6928 111.35 53.9335 110.229 52.2071C109.046 50.3837 107.58 48.5466 106.633 46.5937C106.436 46.1887 106.995 45.9512 107.247 46.2699Z" fill="#434672"/>
<path d="M106.038 57.2404C106.99 57.1273 108.089 57.3888 109.044 57.4814C110.085 57.5825 111.125 57.6836 112.166 57.7846C112.548 57.8216 112.555 58.3725 112.167 58.3353C110.977 58.2212 109.788 58.1072 108.598 57.9931C108.073 57.9427 107.332 57.7332 106.814 57.822C106.215 57.6612 105.89 58.0065 105.839 58.8577C106.162 58.995 106.49 59.1214 106.822 59.2369C108.865 59.9876 110.977 60.5419 113.129 60.876C114.276 61.0541 115.434 61.1751 116.594 61.2361C117.155 61.2657 117.716 61.2789 118.278 61.2816C118.66 61.2834 119.739 61.43 120.02 61.1027C121.149 59.7885 117.548 59.2425 117.021 59.1048C115.904 58.8131 114.802 58.4889 113.7 58.1449C113.664 58.1337 113.681 58.0888 113.715 58.0949C115.598 58.4279 117.531 58.7557 119.371 59.2844C120.051 59.4797 121.074 59.9443 120.872 60.8377C120.662 61.764 119.441 61.8075 118.699 61.8408C116.989 61.9173 115.261 61.8166 113.565 61.5863C111.756 61.3406 109.97 60.943 108.227 60.3982C107.296 60.1073 105.416 59.7761 104.897 58.846C104.43 58.0079 105.268 57.3319 106.038 57.2404Z" fill="#434672"/>
<path d="M116.608 56.8632C118.25 57.1029 119.831 57.4569 121.365 58.1117C122.559 58.6213 123.965 59.2463 124.809 60.2761C125.428 61.0309 125.554 62.0059 124.915 62.7963C124.025 63.8972 122.575 63.8279 121.305 63.6893C121.075 63.6642 121.061 63.3483 121.305 63.3525C122.459 63.372 124.358 63.3905 124.752 61.974C125.144 60.5634 123.366 59.6624 122.394 59.1184C120.591 58.1092 118.622 57.3239 116.595 56.9071C116.562 56.9002 116.578 56.8589 116.608 56.8632Z" fill="#434672"/>
<path d="M103.194 55.1206C105.851 54.8185 108.63 55.386 111.17 56.1159C111.246 56.1377 111.211 56.2393 111.137 56.222C109.064 55.7359 106.92 55.5509 104.793 55.6116C103.769 55.6408 102.47 55.5964 101.63 56.2978C100.265 57.4382 101.548 58.7845 102.676 59.3623C106.156 61.1447 109.99 62.1133 113.828 62.7264C114.11 62.7715 114.039 63.1973 113.76 63.1782C111.143 62.999 108.57 62.4248 106.096 61.551C104.91 61.1321 103.737 60.655 102.618 60.08C101.789 59.654 100.943 59.1488 100.559 58.2542C99.7788 56.4354 101.64 55.2973 103.194 55.1206Z" fill="#434672"/>
<path d="M117.1 56.0116C119.496 55.7643 122.18 56.652 124.369 57.5444C125.604 58.0474 126.784 58.6609 127.919 59.3596C128.792 59.8968 129.759 60.4558 130.388 61.2884C131.446 62.6873 131.16 64.4867 129.49 65.1774C128.401 65.6276 127.098 65.6821 125.938 65.777C124.402 65.9027 122.873 65.9137 121.335 65.8364C120.994 65.8193 120.99 65.3583 121.335 65.3505C123.575 65.2998 125.887 65.2112 128.099 64.8265C129.151 64.6435 130.38 64.2771 130.431 62.977C130.478 61.7918 129.492 60.9431 128.63 60.308C126.909 59.0398 124.92 58.0844 122.899 57.4029C120.99 56.7589 119.021 56.5935 117.089 56.0881C117.039 56.075 117.055 56.0163 117.1 56.0116Z" fill="#434672"/>
<path d="M96.2288 55.9191C97.1258 54.7056 98.7552 54.4284 100.144 54.1857C103.868 53.535 107.785 53.5415 111.449 54.5246C111.74 54.6027 111.602 54.9742 111.327 54.9243C108.098 54.3407 104.855 54.0745 101.59 54.5224C100.042 54.7348 97.6561 54.9296 96.7268 56.3725C95.5819 58.15 97.6121 59.6806 98.9725 60.4083C101.582 61.8045 104.355 62.9619 107.197 63.787C110.03 64.6095 112.901 64.9854 115.81 65.4128C115.875 65.4225 115.855 65.5131 115.794 65.5146C112.128 65.5981 108.364 64.7396 104.889 63.6309C103.298 63.1234 101.739 62.523 100.23 61.807C98.8673 61.1604 97.2058 60.4554 96.3182 59.1643C95.637 58.1731 95.4895 56.9193 96.2288 55.9191Z" fill="#434672"/>
<path d="M108.118 58.3116C108.444 58.2154 108.754 58.1521 109.09 58.099C109.152 58.0893 109.21 58.1338 109.22 58.1831C111.018 58.1219 112.841 58.2618 114.601 58.6632C115.794 58.6815 117.011 59.1872 118.018 59.8565C118.06 59.8682 118.102 59.8787 118.144 59.8904C118.304 59.9356 118.388 60.031 118.413 60.1372C118.563 60.2489 118.708 60.3628 118.844 60.479C119.004 60.615 118.86 60.8404 118.678 60.8406C116.674 60.844 114.69 60.6586 112.721 60.2821C111.728 60.0924 110.592 59.926 109.582 59.5432C109.317 59.4757 109.052 59.408 108.789 59.3332C108.57 59.2713 108.482 59.1311 108.484 58.988C108.323 58.8791 108.169 58.7607 108.025 58.6291C107.905 58.5196 107.977 58.3531 108.118 58.3116Z" fill="#434672"/>
<path d="M122.596 61.3687C124.904 61.7954 127.203 62.2856 129.504 62.7469C131.584 63.1637 133.993 63.3532 135.94 64.2113C136.032 64.2523 135.976 64.373 135.891 64.3743C133.751 64.4052 131.449 63.6491 129.358 63.2261C127.057 62.761 124.749 62.3242 122.456 61.8246C122.122 61.7519 122.281 61.3105 122.596 61.3687Z" fill="#434672"/>
<path d="M91.3554 55.0868C95.3326 55.583 99.2928 56.8443 103.194 57.7442C103.222 57.7505 103.209 57.7868 103.183 57.7818C101.191 57.3948 99.1928 57.0464 97.2022 56.6531C95.2351 56.2645 93.18 55.9774 91.2617 55.3929C91.0368 55.3243 91.1466 55.0606 91.3554 55.0868Z" fill="#434672"/>
<path d="M107.759 68.5292C108.05 67.4276 108.766 66.3694 109.296 65.3626C109.899 64.2191 110.478 63.0181 111.241 61.9743C111.272 61.9328 111.358 61.9526 111.34 62.0116C110.995 63.1159 110.436 64.1686 109.938 65.2102C109.394 66.3461 108.909 67.6865 108.127 68.6691C108.007 68.8191 107.699 68.7548 107.759 68.5292Z" fill="#434672"/>
<path d="M55.1104 96.2499C58.4681 96.3806 61.8194 96.7255 65.1784 96.876C68.4645 97.0233 71.7537 97.1004 75.043 97.1076C81.6966 97.122 88.3499 96.8471 94.9807 96.2962C101.645 95.7424 108.287 94.9034 114.878 93.7713C120.329 92.8351 126.381 91.8683 130.638 88.0184C134.552 84.4785 136.224 77.3432 131.837 73.4799C131.798 73.446 131.855 73.4005 131.891 73.4275C135.557 76.1721 135.571 81.3855 133.666 85.1892C131.203 90.1072 125.564 92.2813 120.533 93.4739C113.937 95.0375 107.1 95.8967 100.369 96.6349C93.2343 97.4174 86.0644 97.8623 78.8878 97.9726C74.8513 98.0347 70.8134 97.9914 66.7795 97.8423C62.8698 97.6979 58.8975 97.59 55.0183 97.0619C54.5133 96.9932 54.6093 96.2305 55.1104 96.2499Z" fill="#434672"/>
<path d="M51.7478 94.4315C52.5648 93.4977 53.6847 92.767 54.6478 91.9873C55.6351 91.188 56.6257 90.3935 57.6209 89.6043C59.1578 88.3855 60.7128 87.0051 62.3951 85.9357C62.1091 85.6688 62.3877 85.0707 62.9039 85.1442C73.5759 86.6618 84.3366 87.507 95.1151 87.6615C100.414 87.7374 105.715 87.6472 111.008 87.39C113.615 87.2633 116.226 87.1152 118.826 86.8843C121.108 86.6818 123.435 86.3685 125.569 85.4907C127.891 84.5351 129.763 82.9059 130.626 80.5048C131.39 78.3763 131.238 75.7419 129.482 74.1403C129.458 74.1185 129.494 74.0885 129.516 74.1069C132.401 76.4732 131.916 80.7662 129.715 83.4627C126.896 86.917 121.872 87.451 117.741 87.7789C105.989 88.7117 94.1604 88.797 82.3951 88.0607C75.9066 87.6546 69.436 86.9955 62.9969 86.0987C61.5071 87.714 59.6311 89.0757 57.9655 90.4664C57.0503 91.2306 56.129 91.987 55.206 92.7419C54.2656 93.5111 53.349 94.4189 52.292 95.0229C51.9003 95.2464 51.4226 94.8031 51.7478 94.4315Z" fill="#434672"/>
<path d="M128.363 69.5034C130.578 70.532 133.043 71.4454 135.093 72.7884C135.319 72.7601 135.383 73.1146 135.111 73.1281C134.075 73.1805 133.062 73.4687 132.021 73.4897C131.989 73.4904 131.984 73.4483 132.014 73.4388C132.959 73.1397 133.959 73.0774 134.914 72.8283C132.61 72.0877 130.367 70.8013 128.192 69.7662C127.994 69.672 128.181 69.4191 128.363 69.5034Z" fill="#434672"/>
<path d="M126.015 74.3857C126.194 73.5223 126.579 72.6886 126.886 71.8657C127.175 71.0896 127.407 70.264 127.822 69.5454C127.922 69.3722 128.212 69.4816 128.17 69.6778C127.979 70.5846 127.53 71.4654 127.188 72.3267C126.922 72.9996 126.691 73.7018 126.346 74.3393C127.344 74.1969 128.344 74.0963 129.351 74.0312C129.378 74.0294 129.385 74.0692 129.358 74.0757C128.282 74.3261 127.203 74.5362 126.11 74.6918C125.899 74.7216 125.789 74.4207 126.015 74.3857Z" fill="#434672"/>
<path d="M53.2737 53.7176C57.7156 53.1435 62.1978 52.8832 66.6763 52.9382C72.4104 53.0088 78.1407 53.5911 83.755 54.7524C83.5439 54.795 83.3332 54.8511 83.1256 54.9159C83.0869 54.928 83.0543 54.9459 83.0195 54.9618C73.1415 53.2767 63.0921 52.9695 53.128 54.3035C53.1791 54.1088 53.2279 53.9136 53.2737 53.7176Z" fill="#434672"/>
<path d="M25.3872 63.136C25.2557 63.4829 25.1659 63.8438 25.1104 64.2138C23.6159 65.6313 22.3724 67.2999 21.5286 69.2803C20.3574 72.0284 20.1464 75.1502 21.4075 77.9041C21.7093 78.5633 22.0832 79.1826 22.5168 79.7494C22.4687 79.9936 22.4254 80.2402 22.3858 80.4883C20.8176 78.6718 19.8819 76.2583 19.8903 73.8608C19.9056 69.5806 22.2405 65.8673 25.3872 63.136Z" fill="#434672"/>
<path d="M53.8136 50.6887C54.7958 50.6397 55.7787 50.6026 56.7619 50.5798C61.5061 50.4701 66.2575 50.6672 70.976 51.1753C75.5928 51.6726 80.4388 52.2501 84.8695 53.684C84.9627 53.7142 85.0216 53.7652 85.053 53.8241C85.2686 53.5986 85.5472 53.4396 85.8083 53.2687C86.2002 53.0118 86.6004 52.7133 87.03 52.5256C87.1884 52.4565 87.4066 52.5611 87.4592 52.7005C88.3994 53.6598 89.0901 54.9419 89.8307 56.0541C89.9139 56.179 89.8231 56.3279 89.6918 56.3622C86.8662 57.0992 84.0313 57.8887 81.1661 58.4564C80.8169 58.5255 80.6453 58.0533 81.0113 57.9504C83.7291 57.1858 86.5154 56.6196 89.2748 56.0213C88.6339 55.0074 87.881 53.9647 87.4448 52.8519C87.4289 52.8777 87.4062 52.9034 87.3738 52.9277C87.0208 53.1927 86.6057 53.3838 86.2141 53.586C85.8362 53.7809 85.4546 54.0253 85.0281 54.0847C84.9665 54.1724 84.8542 54.2329 84.709 54.2091C80.8235 53.5692 77.0071 52.6389 73.0934 52.1299C69.0946 51.6099 65.0647 51.3222 61.0329 51.2536C58.5929 51.2121 56.1519 51.2534 53.715 51.3747C53.7496 51.146 53.7824 50.9174 53.8136 50.6887Z" fill="#434672"/>
<path d="M8.72058 63.1447C12.2399 60.9222 16.1713 59.2999 20.0444 57.8109C22.059 57.0365 24.0962 56.3232 26.1525 55.6699C26.0487 55.8937 25.9972 56.1244 26.0177 56.3503C22.0561 57.6052 18.1669 59.0889 14.383 60.8061C7.79872 63.7943 -0.322626 69.0795 0.553997 77.4643C1.36179 85.1934 9.59936 88.39 15.7359 91.0945C17.5638 89.9398 19.4709 88.8883 21.3575 87.8289C21.3391 88.0914 21.3258 88.3545 21.3166 88.6182C19.4864 89.7566 17.6488 90.9044 15.7575 91.9243C15.3498 92.1441 14.9526 91.5942 15.3694 91.3259C15.4719 91.2598 15.5761 91.1957 15.6792 91.1304C10.1196 89.413 3.42912 86.3936 0.940872 80.7385C-2.14596 73.7236 2.98116 66.7694 8.72058 63.1447Z" fill="#434672"/>
<path d="M79.6956 58.1626C80.2142 57.5001 80.9274 56.9664 81.5485 56.4007C82.1622 55.8417 82.7833 55.2407 83.4897 54.801C83.5252 54.779 83.5787 54.8198 83.5536 54.8586C83.1325 55.5111 82.5525 56.0793 82.0164 56.6372C81.4249 57.2529 80.8535 57.9821 80.1698 58.4922C79.9536 58.6535 79.4682 58.453 79.6956 58.1626Z" fill="#434672"/>
</svg>
