<svg width="40" height="40" viewBox="0 0 40 40" fill="none" xmlns="http://www.w3.org/2000/svg">
<path d="M39.7343 16.8609L35.7468 8.88281C35.5999 8.58916 35.3966 8.32733 35.1485 8.11226C34.9004 7.89719 34.6124 7.7331 34.3009 7.62936C33.9893 7.52561 33.6604 7.48425 33.3329 7.50763C33.0054 7.53101 32.6857 7.61868 32.3921 7.76562L28.5062 9.70781L20.3202 7.54219C20.1102 7.48753 19.8897 7.48753 19.6796 7.54219L11.4937 9.70781L7.60774 7.76562C7.31412 7.61868 6.99443 7.53101 6.66692 7.50763C6.33942 7.48425 6.01052 7.52561 5.699 7.62936C5.38748 7.7331 5.09945 7.89719 4.85135 8.11226C4.60325 8.32733 4.39995 8.58916 4.25306 8.88281L0.265557 16.8594C0.118613 17.153 0.0309477 17.4727 0.00756722 17.8002C-0.0158133 18.1277 0.0255489 18.4566 0.129292 18.7681C0.233035 19.0796 0.397126 19.3677 0.612195 19.6158C0.827264 19.8639 1.0891 20.0672 1.38274 20.2141L5.60149 22.325L14.2718 28.5172C14.3996 28.6081 14.5432 28.6743 14.6952 28.7125L24.6952 31.2125C24.9047 31.265 25.1241 31.2624 25.3322 31.2049C25.5403 31.1474 25.73 31.037 25.8827 30.8844L34.4874 22.2781L38.6156 20.2141C39.2082 19.9174 39.6588 19.3975 39.8683 18.7688C40.0778 18.14 40.029 17.4538 39.7327 16.8609H39.7343ZM31.1577 22.075L25.7812 17.7687C25.5403 17.5759 25.2366 17.4789 24.9285 17.4965C24.6205 17.5141 24.3298 17.645 24.1124 17.8641C21.3296 20.6672 18.2281 20.3125 16.2499 19.0625L23.0062 12.5H27.9765L32.2281 21.0016L31.1577 22.075ZM6.48899 10L9.68743 11.5969L5.69212 19.5734L2.49993 17.9781L6.48899 10ZM24.614 28.6141L15.5343 26.3453L7.84681 20.8547L12.2218 12.1047L19.9999 10.0437L21.5312 10.4484L14.4999 17.2734L14.4874 17.2875C14.2228 17.5522 14.0209 17.8729 13.8967 18.226C13.7726 18.5791 13.7293 18.9556 13.7701 19.3277C13.8109 19.6998 13.9347 20.058 14.1324 20.3758C14.3301 20.6936 14.5967 20.963 14.9124 21.1641C18.1249 23.2156 22.0015 22.8828 25.0546 20.3828L29.3749 23.8531L24.614 28.6141ZM34.3015 19.5719L30.314 11.6031L33.5109 10L37.4999 17.9781L34.3015 19.5719ZM20.5906 34.0516C20.523 34.3217 20.3672 34.5616 20.1478 34.7331C19.9285 34.9047 19.6581 34.998 19.3796 34.9984C19.2769 34.9983 19.1746 34.9857 19.0749 34.9609L12.564 33.3328C12.4117 33.2952 12.268 33.2289 12.1406 33.1375L8.02337 30.1969C7.77022 29.9981 7.60349 29.7094 7.55791 29.3907C7.51233 29.0721 7.5914 28.7482 7.77867 28.4864C7.96594 28.2246 8.24697 28.0452 8.56323 27.9854C8.8795 27.9257 9.20662 27.9902 9.47649 28.1656L13.3999 30.9688L19.6874 32.5375C20.009 32.6179 20.2854 32.8228 20.456 33.107C20.6265 33.3912 20.6772 33.7316 20.5968 34.0531L20.5906 34.0516Z" fill="#8398AD"/>
</svg>
