<svg width="902" height="902" viewBox="0 0 902 902" fill="none" xmlns="http://www.w3.org/2000/svg">
<rect width="902" height="902" fill="#111827"/>
<path d="M187.917 256.859C187.917 256.859 451 154.362 451 256.859C451 359.355 714.083 256.859 714.083 256.859M187.917 363C187.917 363 451 260.503 451 363C451 465.497 714.083 363 714.083 363M187.917 469.141C187.917 469.141 451 366.645 451 469.141C451 571.638 714.083 469.141 714.083 469.141" stroke="#A2A3BA" stroke-width="31.9858"/>
<path d="M190.66 653.695V569.695H222.58C229.38 569.695 235.02 570.855 239.5 573.175C243.98 575.495 247.3 578.655 249.46 582.655C251.7 586.575 252.82 591.055 252.82 596.095C252.82 600.735 251.74 605.055 249.58 609.055C247.5 612.975 244.22 616.175 239.74 618.655C235.26 621.135 229.54 622.375 222.58 622.375H207.46V653.695H190.66ZM207.46 608.815H221.5C226.54 608.815 230.14 607.655 232.3 605.335C234.54 603.015 235.66 599.935 235.66 596.095C235.66 592.095 234.54 588.975 232.3 586.735C230.14 584.495 226.54 583.375 221.5 583.375H207.46V608.815ZM280.898 655.135C275.938 655.135 271.778 654.335 268.418 652.735C265.138 651.055 262.698 648.855 261.098 646.135C259.578 643.335 258.818 640.255 258.818 636.895C258.818 633.295 259.738 630.095 261.578 627.295C263.418 624.495 266.258 622.295 270.098 620.695C273.938 619.095 278.738 618.295 284.498 618.295H299.378C299.378 615.415 298.978 613.055 298.178 611.215C297.458 609.295 296.258 607.855 294.578 606.895C292.978 605.935 290.818 605.455 288.098 605.455C285.138 605.455 282.618 606.095 280.538 607.375C278.538 608.655 277.298 610.575 276.818 613.135H260.498C260.978 608.815 262.418 605.095 264.818 601.975C267.218 598.775 270.418 596.295 274.418 594.535C278.498 592.695 283.098 591.775 288.218 591.775C293.898 591.775 298.818 592.735 302.978 594.655C307.218 596.575 310.458 599.335 312.698 602.935C315.018 606.535 316.178 610.975 316.178 616.255V653.695H302.018L300.098 644.575C299.298 646.175 298.258 647.615 296.978 648.895C295.778 650.175 294.378 651.295 292.778 652.255C291.178 653.135 289.378 653.815 287.378 654.295C285.458 654.855 283.298 655.135 280.898 655.135ZM284.978 642.175C286.978 642.175 288.778 641.855 290.378 641.215C291.978 640.495 293.338 639.495 294.458 638.215C295.578 636.935 296.498 635.495 297.218 633.895C297.938 632.215 298.418 630.415 298.658 628.495V628.375H286.538C284.218 628.375 282.298 628.695 280.778 629.335C279.338 629.895 278.258 630.735 277.538 631.855C276.818 632.895 276.458 634.095 276.458 635.455C276.458 636.895 276.818 638.135 277.538 639.175C278.258 640.215 279.258 640.975 280.538 641.455C281.818 641.935 283.298 642.175 284.978 642.175ZM336.97 680.095L351.49 646.975H347.89L323.65 593.215H341.89L359.05 631.495L374.05 593.215H391.93L354.73 680.095H336.97ZM402.295 653.695V593.215H417.055L418.375 601.255C420.295 598.375 422.815 596.095 425.935 594.415C429.135 592.655 432.815 591.775 436.975 591.775C439.935 591.775 442.615 592.175 445.015 592.975C447.415 593.775 449.535 594.935 451.375 596.455C453.295 597.975 454.855 599.855 456.055 602.095C458.375 598.895 461.335 596.375 464.935 594.535C468.535 592.695 472.455 591.775 476.695 591.775C481.975 591.775 486.375 592.855 489.895 595.015C493.415 597.095 496.055 600.175 497.815 604.255C499.655 608.255 500.575 613.175 500.575 619.015V653.695H483.895V620.455C483.895 615.815 482.975 612.255 481.135 609.775C479.295 607.215 476.455 605.935 472.615 605.935C470.055 605.935 467.815 606.575 465.895 607.855C463.975 609.055 462.455 610.815 461.335 613.135C460.295 615.455 459.775 618.255 459.775 621.535V653.695H443.095V620.455C443.095 615.815 442.175 612.255 440.335 609.775C438.495 607.215 435.575 605.935 431.575 605.935C429.175 605.935 427.015 606.575 425.095 607.855C423.175 609.055 421.695 610.815 420.655 613.135C419.615 615.455 419.095 618.255 419.095 621.535V653.695H402.295ZM545.01 655.135C538.93 655.135 533.53 653.855 528.81 651.295C524.17 648.655 520.53 645.015 517.89 640.375C515.25 635.655 513.93 630.215 513.93 624.055C513.93 617.815 515.21 612.295 517.77 607.495C520.41 602.615 524.05 598.775 528.69 595.975C533.41 593.175 538.89 591.775 545.13 591.775C551.13 591.775 556.37 593.095 560.85 595.735C565.41 598.375 568.93 601.935 571.41 606.415C573.97 610.895 575.25 616.055 575.25 621.895C575.25 622.695 575.21 623.575 575.13 624.535C575.13 625.495 575.05 626.535 574.89 627.655H525.93V617.455H558.21C557.97 613.775 556.61 610.855 554.13 608.695C551.73 606.455 548.73 605.335 545.13 605.335C542.41 605.335 539.93 605.975 537.69 607.255C535.45 608.535 533.69 610.415 532.41 612.895C531.13 615.375 530.49 618.535 530.49 622.375V625.855C530.49 628.975 531.09 631.735 532.29 634.135C533.49 636.455 535.17 638.255 537.33 639.535C539.49 640.815 542.01 641.455 544.89 641.455C547.77 641.455 550.13 640.855 551.97 639.655C553.89 638.455 555.33 636.895 556.29 634.975H573.45C572.33 638.735 570.41 642.135 567.69 645.175C565.05 648.215 561.81 650.655 557.97 652.495C554.13 654.255 549.81 655.135 545.01 655.135ZM613.346 655.135C607.746 655.135 602.906 654.255 598.826 652.495C594.746 650.655 591.546 648.215 589.226 645.175C586.906 642.055 585.546 638.535 585.146 634.615H601.946C602.266 636.055 602.866 637.375 603.746 638.575C604.706 639.695 605.946 640.615 607.466 641.335C609.066 642.055 610.946 642.415 613.106 642.415C615.186 642.415 616.866 642.135 618.146 641.575C619.506 640.935 620.506 640.135 621.146 639.175C621.866 638.215 622.226 637.175 622.226 636.055C622.226 634.455 621.746 633.215 620.786 632.335C619.826 631.455 618.426 630.735 616.586 630.175C614.746 629.615 612.546 629.095 609.986 628.615C607.106 627.975 604.266 627.255 601.466 626.455C598.746 625.655 596.266 624.615 594.026 623.335C591.866 621.975 590.146 620.295 588.866 618.295C587.586 616.295 586.946 613.815 586.946 610.855C586.946 607.255 587.906 604.015 589.826 601.135C591.826 598.255 594.666 595.975 598.346 594.295C602.106 592.615 606.586 591.775 611.786 591.775C619.146 591.775 624.946 593.455 629.186 596.815C633.506 600.095 636.066 604.575 636.866 610.255H621.026C620.626 608.495 619.626 607.135 618.026 606.175C616.426 605.215 614.306 604.735 611.666 604.735C608.946 604.735 606.826 605.215 605.306 606.175C603.866 607.135 603.146 608.415 603.146 610.015C603.146 611.055 603.626 612.015 604.586 612.895C605.546 613.695 606.906 614.415 608.666 615.055C610.506 615.615 612.746 616.175 615.386 616.735C620.106 617.695 624.226 618.815 627.746 620.095C631.266 621.295 634.026 623.055 636.026 625.375C638.026 627.615 639.026 630.895 639.026 635.215C639.106 639.055 638.066 642.495 635.906 645.535C633.826 648.575 630.866 650.935 627.026 652.615C623.186 654.295 618.626 655.135 613.346 655.135ZM652.725 653.695V567.295H669.525V602.095C671.445 598.975 674.045 596.495 677.325 594.655C680.685 592.735 684.565 591.775 688.965 591.775C694.005 591.775 698.245 592.855 701.685 595.015C705.125 597.095 707.725 600.175 709.485 604.255C711.325 608.255 712.245 613.215 712.245 619.135V653.695H695.565V620.695C695.565 615.975 694.565 612.335 692.565 609.775C690.565 607.215 687.485 605.935 683.325 605.935C680.685 605.935 678.285 606.575 676.125 607.855C674.045 609.135 672.405 610.935 671.205 613.255C670.085 615.575 669.525 618.375 669.525 621.655V653.695H652.725Z" fill="#A2A3BA"/>
</svg>
