<svg width="121" height="25" viewBox="0 0 121 25" fill="none" xmlns="http://www.w3.org/2000/svg">
<path d="M1 5.0302C1 5.0302 18.5 -1.78775 18.5 5.0302C18.5 11.8482 36 5.0302 36 5.0302M1 12.5C1 12.5 18.5 5.68207 18.5 12.5C18.5 19.318 36 12.5 36 12.5M1 19.9698C1 19.9698 18.5 13.1519 18.5 19.9698C18.5 26.7878 36 19.9698 36 19.9698" stroke="white" stroke-width="2.12766"/>
<path d="M41.242 19V6.4H45.958C46.978 6.4 47.824 6.574 48.496 6.922C49.168 7.27 49.666 7.738 49.99 8.326C50.314 8.914 50.476 9.586 50.476 10.342C50.476 11.038 50.32 11.68 50.008 12.268C49.696 12.856 49.204 13.336 48.532 13.708C47.86 14.068 47.002 14.248 45.958 14.248H43.672V19H41.242ZM43.672 12.286H45.814C46.594 12.286 47.152 12.112 47.488 11.764C47.836 11.404 48.01 10.93 48.01 10.342C48.01 9.718 47.836 9.238 47.488 8.902C47.152 8.554 46.594 8.38 45.814 8.38H43.672V12.286ZM54.707 19.216C53.951 19.216 53.327 19.096 52.835 18.856C52.343 18.604 51.977 18.274 51.737 17.866C51.509 17.446 51.395 16.984 51.395 16.48C51.395 15.928 51.533 15.442 51.809 15.022C52.097 14.602 52.523 14.272 53.087 14.032C53.663 13.792 54.383 13.672 55.247 13.672H57.497C57.497 13.228 57.437 12.862 57.317 12.574C57.197 12.274 57.011 12.052 56.759 11.908C56.507 11.764 56.171 11.692 55.751 11.692C55.295 11.692 54.905 11.794 54.581 11.998C54.269 12.19 54.077 12.49 54.005 12.898H51.647C51.707 12.25 51.917 11.692 52.277 11.224C52.649 10.744 53.135 10.372 53.735 10.108C54.347 9.844 55.025 9.712 55.769 9.712C56.621 9.712 57.359 9.856 57.983 10.144C58.607 10.432 59.087 10.846 59.423 11.386C59.759 11.926 59.927 12.592 59.927 13.384V19H57.875L57.605 17.614C57.473 17.854 57.317 18.07 57.137 18.262C56.957 18.454 56.747 18.622 56.507 18.766C56.267 18.91 55.997 19.018 55.697 19.09C55.397 19.174 55.067 19.216 54.707 19.216ZM55.283 17.344C55.595 17.344 55.871 17.29 56.111 17.182C56.363 17.062 56.579 16.906 56.759 16.714C56.939 16.51 57.077 16.282 57.173 16.03C57.281 15.766 57.353 15.484 57.389 15.184V15.166H55.535C55.163 15.166 54.857 15.214 54.617 15.31C54.389 15.394 54.221 15.52 54.113 15.688C54.005 15.856 53.951 16.048 53.951 16.264C53.951 16.504 54.005 16.702 54.113 16.858C54.221 17.014 54.377 17.134 54.581 17.218C54.785 17.302 55.019 17.344 55.283 17.344ZM63.0295 22.96L65.2255 17.992H64.6855L61.0495 9.928H63.6955L66.2875 15.778L68.6275 9.928H71.2015L65.6035 22.96H63.0295ZM72.7407 19V9.928H74.8827L75.0807 11.134C75.3687 10.702 75.7467 10.36 76.2147 10.108C76.6947 9.844 77.2407 9.712 77.8527 9.712C78.3087 9.712 78.7167 9.772 79.0767 9.892C79.4367 10.012 79.7547 10.186 80.0307 10.414C80.3187 10.642 80.5527 10.93 80.7327 11.278C81.0687 10.786 81.5067 10.402 82.0467 10.126C82.5867 9.85 83.1747 9.712 83.8107 9.712C84.6027 9.712 85.2627 9.874 85.7907 10.198C86.3187 10.51 86.7147 10.966 86.9787 11.566C87.2547 12.166 87.3927 12.904 87.3927 13.78V19H84.9807V13.996C84.9807 13.276 84.8367 12.724 84.5487 12.34C84.2727 11.956 83.8407 11.764 83.2527 11.764C82.8687 11.764 82.5267 11.86 82.2267 12.052C81.9267 12.244 81.6927 12.52 81.5247 12.88C81.3687 13.24 81.2907 13.672 81.2907 14.176V19H78.8607V13.996C78.8607 13.276 78.7167 12.724 78.4287 12.34C78.1407 11.956 77.6967 11.764 77.0967 11.764C76.7247 11.764 76.3887 11.86 76.0887 12.052C75.8007 12.244 75.5727 12.52 75.4047 12.88C75.2487 13.24 75.1707 13.672 75.1707 14.176V19H72.7407ZM94.042 19.216C93.13 19.216 92.32 19.024 91.612 18.64C90.916 18.244 90.37 17.698 89.974 17.002C89.59 16.294 89.398 15.478 89.398 14.554C89.398 13.606 89.59 12.772 89.974 12.052C90.37 11.32 90.916 10.75 91.612 10.342C92.308 9.922 93.118 9.712 94.042 9.712C94.942 9.712 95.728 9.91 96.4 10.306C97.072 10.702 97.594 11.236 97.966 11.908C98.338 12.58 98.524 13.342 98.524 14.194C98.524 14.314 98.524 14.452 98.524 14.608C98.524 14.752 98.512 14.902 98.488 15.058H91.126V13.582H96.076C96.04 12.994 95.83 12.532 95.446 12.196C95.074 11.86 94.606 11.692 94.042 11.692C93.634 11.692 93.256 11.788 92.908 11.98C92.56 12.16 92.284 12.442 92.08 12.826C91.888 13.21 91.792 13.696 91.792 14.284V14.806C91.792 15.298 91.882 15.73 92.062 16.102C92.254 16.462 92.518 16.744 92.854 16.948C93.19 17.14 93.58 17.236 94.024 17.236C94.468 17.236 94.834 17.14 95.122 16.948C95.422 16.756 95.644 16.51 95.788 16.21H98.272C98.104 16.774 97.822 17.284 97.426 17.74C97.03 18.196 96.544 18.556 95.968 18.82C95.392 19.084 94.75 19.216 94.042 19.216ZM104.222 19.216C103.394 19.216 102.674 19.084 102.062 18.82C101.45 18.556 100.97 18.19 100.622 17.722C100.274 17.254 100.076 16.726 100.028 16.138H102.44C102.5 16.366 102.602 16.576 102.746 16.768C102.89 16.948 103.082 17.092 103.322 17.2C103.562 17.308 103.85 17.362 104.186 17.362C104.51 17.362 104.774 17.32 104.978 17.236C105.182 17.14 105.332 17.014 105.428 16.858C105.536 16.702 105.59 16.54 105.59 16.372C105.59 16.12 105.518 15.928 105.374 15.796C105.23 15.652 105.02 15.538 104.744 15.454C104.468 15.37 104.132 15.286 103.736 15.202C103.304 15.118 102.878 15.016 102.458 14.896C102.05 14.764 101.684 14.602 101.36 14.41C101.036 14.218 100.778 13.972 100.586 13.672C100.394 13.372 100.298 13 100.298 12.556C100.298 12.016 100.442 11.536 100.73 11.116C101.018 10.684 101.438 10.342 101.99 10.09C102.542 9.838 103.208 9.712 103.988 9.712C105.08 9.712 105.944 9.958 106.58 10.45C107.216 10.942 107.594 11.62 107.714 12.484H105.428C105.356 12.208 105.194 11.992 104.942 11.836C104.702 11.668 104.378 11.584 103.97 11.584C103.538 11.584 103.208 11.662 102.98 11.818C102.752 11.974 102.638 12.178 102.638 12.43C102.638 12.598 102.71 12.748 102.854 12.88C103.01 13.012 103.226 13.126 103.502 13.222C103.778 13.306 104.114 13.39 104.51 13.474C105.206 13.618 105.818 13.786 106.346 13.978C106.874 14.158 107.288 14.422 107.588 14.77C107.888 15.106 108.038 15.598 108.038 16.246C108.038 16.822 107.882 17.338 107.57 17.794C107.258 18.238 106.814 18.586 106.238 18.838C105.674 19.09 105.002 19.216 104.222 19.216ZM110.094 19V6.04H112.524V11.278C112.824 10.798 113.22 10.42 113.712 10.144C114.216 9.856 114.798 9.712 115.458 9.712C116.214 9.712 116.85 9.874 117.366 10.198C117.882 10.51 118.272 10.966 118.536 11.566C118.8 12.166 118.932 12.91 118.932 13.798V19H116.52V14.014C116.52 13.294 116.37 12.742 116.07 12.358C115.77 11.962 115.296 11.764 114.648 11.764C114.252 11.764 113.892 11.86 113.568 12.052C113.244 12.244 112.986 12.526 112.794 12.898C112.614 13.258 112.524 13.69 112.524 14.194V19H110.094Z" fill="white"/>
</svg>
