<svg width="41" height="40" viewBox="0 0 41 40" fill="none" xmlns="http://www.w3.org/2000/svg">
<path d="M20.6666 3.75C17.4527 3.75 14.3109 4.70305 11.6386 6.48862C8.96632 8.27419 6.88351 10.8121 5.65359 13.7814C4.42367 16.7507 4.10186 20.018 4.72887 23.1702C5.35588 26.3224 6.90354 29.2179 9.17615 31.4905C11.4488 33.7631 14.3442 35.3107 17.4964 35.9378C20.6486 36.5648 23.9159 36.243 26.8852 35.013C29.8545 33.7831 32.3924 31.7003 34.178 29.028C35.9636 26.3557 36.9166 23.2139 36.9166 20C36.9121 15.6916 35.1986 11.561 32.1521 8.51454C29.1056 5.46806 24.975 3.75455 20.6666 3.75ZM20.6666 33.75C17.9471 33.75 15.2887 32.9436 13.0275 31.4327C10.7664 29.9218 9.00399 27.7744 7.96329 25.2619C6.92258 22.7494 6.65029 19.9847 7.18084 17.3175C7.71138 14.6503 9.02094 12.2003 10.9439 10.2773C12.8669 8.35431 15.3169 7.04475 17.9841 6.5142C20.6514 5.98366 23.416 6.25595 25.9285 7.29666C28.441 8.33736 30.5885 10.0997 32.0993 12.3609C33.6102 14.6221 34.4166 17.2805 34.4166 20C34.4125 23.6455 32.9625 27.1404 30.3848 29.7182C27.8071 32.2959 24.3121 33.7459 20.6666 33.75ZM28.1666 20C28.1666 20.3315 28.0349 20.6495 27.8005 20.8839C27.5661 21.1183 27.2482 21.25 26.9166 21.25H21.9166V26.25C21.9166 26.5815 21.7849 26.8995 21.5505 27.1339C21.3161 27.3683 20.9982 27.5 20.6666 27.5C20.3351 27.5 20.0172 27.3683 19.7828 27.1339C19.5483 26.8995 19.4166 26.5815 19.4166 26.25V21.25H14.4166C14.0851 21.25 13.7672 21.1183 13.5328 20.8839C13.2983 20.6495 13.1666 20.3315 13.1666 20C13.1666 19.6685 13.2983 19.3505 13.5328 19.1161C13.7672 18.8817 14.0851 18.75 14.4166 18.75H19.4166V13.75C19.4166 13.4185 19.5483 13.1005 19.7828 12.8661C20.0172 12.6317 20.3351 12.5 20.6666 12.5C20.9982 12.5 21.3161 12.6317 21.5505 12.8661C21.7849 13.1005 21.9166 13.4185 21.9166 13.75V18.75H26.9166C27.2482 18.75 27.5661 18.8817 27.8005 19.1161C28.0349 19.3505 28.1666 19.6685 28.1666 20Z" fill="#8398AD"/>
</svg>
