<svg width="210" height="210" viewBox="0 0 210 210" fill="none" xmlns="http://www.w3.org/2000/svg">
<path d="M59.229 22.125C59.229 20.9514 58.2776 20 57.104 20H22.125C20.9514 20 20 20.9514 20 22.125V57.1047C20 58.2783 20.9514 59.2297 22.125 59.2297H57.104C58.2776 59.2297 59.229 58.2783 59.229 57.1047V22.125ZM52.9017 50.7781C52.9017 51.9517 51.9503 52.9031 50.7767 52.9031H28.4515C27.2779 52.9031 26.3265 51.9517 26.3265 50.7781V28.4522C26.3265 27.2786 27.2779 26.3272 28.4515 26.3272H50.7767C51.9503 26.3272 52.9017 27.2786 52.9017 28.4522V50.7781Z" fill="white"/>
<path d="M45.2372 31.5156H33.2847C32.1111 31.5156 31.1597 32.467 31.1597 33.6406V45.5914C31.1597 46.765 32.1111 47.7164 33.2847 47.7164H45.2372C46.4108 47.7164 47.3622 46.765 47.3622 45.5914V33.6406C47.3622 32.467 46.4108 31.5156 45.2372 31.5156Z" fill="white"/>
<path d="M83.2577 20H74.4316C73.258 20 72.3066 20.9514 72.3066 22.125V30.9524C72.3066 32.126 73.258 33.0774 74.4316 33.0774H83.2577C84.4313 33.0774 85.3827 32.126 85.3827 30.9524V22.125C85.3827 20.9514 84.4313 20 83.2577 20Z" fill="white"/>
<path d="M33.0773 87.5098C33.0773 86.3362 32.1259 85.3848 30.9523 85.3848H22.1255C20.9519 85.3848 20.0005 86.3362 20.0005 87.5098V98.4605V109.415C20.0005 110.589 20.9519 111.54 22.1255 111.54H30.9523C32.1259 111.54 33.0773 110.589 33.0773 109.415V98.4605V87.5098Z" fill="white"/>
<path d="M57.1043 85.3848H48.2783C47.1047 85.3848 46.1533 86.3362 46.1533 87.5098V96.3355C46.1533 97.5091 47.1047 98.4605 48.2783 98.4605H57.1043C58.2779 98.4605 59.2293 97.5091 59.2293 96.3355V87.5098C59.2293 86.3362 58.2779 85.3848 57.1043 85.3848Z" fill="white"/>
<path d="M44.0278 72.3105H35.2017C34.0281 72.3105 33.0767 73.2619 33.0767 74.4355V83.2613C33.0767 84.4349 34.0281 85.3863 35.2017 85.3863H44.0278C45.2014 85.3863 46.1528 84.4349 46.1528 83.2613V74.4355C46.1528 73.2619 45.2014 72.3105 44.0278 72.3105Z" fill="white"/>
<path d="M165.971 85.3848C164.797 85.3848 163.846 84.4334 163.846 83.2598V74.434C163.846 73.2604 162.894 72.309 161.721 72.309H150.768H137.69V85.3848H148.643C149.817 85.3848 150.768 86.3362 150.768 87.5098V96.3355C150.768 97.5091 151.719 98.4605 152.893 98.4605H161.721C162.894 98.4605 163.846 99.4119 163.846 100.586V109.415C163.846 110.589 162.894 111.54 161.721 111.54H150.768H139.815C138.642 111.54 137.69 110.589 137.69 109.415V98.4605V85.3848H126.738C125.565 85.3848 124.613 84.4334 124.613 83.2598V74.434C124.613 73.2604 125.565 72.309 126.738 72.309H137.69V59.2297V48.2781C137.69 47.1045 136.739 46.1531 135.565 46.1531H126.738C125.565 46.1531 124.613 45.2017 124.613 44.0281V35.2024C124.613 34.0288 125.565 33.0774 126.738 33.0774H135.565C136.739 33.0774 137.69 32.126 137.69 30.9524V22.125C137.69 20.9514 136.739 20 135.565 20H124.613H111.537H100.585C99.4118 20 98.4604 20.9514 98.4604 22.125V30.9524C98.4604 32.126 99.4118 33.0774 100.585 33.0774H109.412C110.586 33.0774 111.537 34.0288 111.537 35.2024V46.1531V57.1047C111.537 58.2783 110.586 59.2297 109.412 59.2297H100.585C99.4118 59.2297 98.4604 60.1811 98.4604 61.3547V70.184C98.4604 71.3577 99.4118 72.309 100.585 72.309H109.412C110.586 72.309 111.537 73.2604 111.537 74.434V85.3848V96.3355C111.537 97.5091 110.586 98.4605 109.412 98.4605H100.585C99.4118 98.4605 98.4604 99.4119 98.4604 100.586V109.415C98.4604 110.589 99.4118 111.54 100.585 111.54H109.412C110.586 111.54 111.537 112.492 111.537 113.665V124.615V135.568C111.537 136.741 110.586 137.693 109.412 137.693H100.585C99.4118 137.693 98.4604 138.644 98.4604 139.818V148.643C98.4604 149.817 99.4118 150.768 100.585 150.768H109.412C110.586 150.768 111.537 151.72 111.537 152.893V163.845V174.798C111.537 175.972 110.586 176.923 109.412 176.923H100.585C99.4118 176.923 98.4604 177.874 98.4604 179.048V187.875C98.4604 189.048 99.4118 190 100.585 190H111.537H124.613H135.565C136.739 190 137.69 189.048 137.69 187.875V179.048C137.69 177.874 136.739 176.923 135.565 176.923H126.738C125.565 176.923 124.613 175.972 124.613 174.798V165.97C124.613 164.796 125.565 163.845 126.738 163.845H135.565C136.739 163.845 137.69 162.893 137.69 161.72V150.768V139.818C137.69 138.644 136.739 137.693 135.565 137.693H126.738C125.565 137.693 124.613 136.741 124.613 135.568V126.74C124.613 125.567 125.565 124.615 126.738 124.615H137.69H148.643C149.817 124.615 150.768 125.567 150.768 126.74V135.568C150.768 136.741 151.719 137.693 152.893 137.693H161.721C162.894 137.693 163.846 136.741 163.846 135.568V126.74C163.846 125.567 164.797 124.615 165.971 124.615H174.797C175.971 124.615 176.922 125.567 176.922 126.74V135.568C176.922 136.741 177.874 137.693 179.047 137.693H187.875C189.049 137.693 190 136.741 190 135.568V124.615V113.665C190 112.492 189.049 111.54 187.875 111.54H179.047C177.874 111.54 176.922 110.589 176.922 109.415V100.586C176.922 99.4119 177.874 98.4605 179.047 98.4605H187.875C189.049 98.4605 190 97.5091 190 96.3355V87.5098C190 86.3362 189.049 85.3848 187.875 85.3848H176.922H165.971Z" fill="white"/>
<path d="M152.893 20C151.719 20 150.768 20.9514 150.768 22.125V57.1047C150.768 58.2783 151.719 59.2297 152.893 59.2297H187.875C189.049 59.2297 190 58.2783 190 57.1047V22.125C190 20.9514 189.049 20 187.875 20H152.893ZM183.671 50.7781C183.671 51.9517 182.72 52.9031 181.546 52.9031H159.22C158.047 52.9031 157.095 51.9517 157.095 50.7781V28.4522C157.095 27.2786 158.047 26.3272 159.22 26.3272H181.546C182.72 26.3272 183.671 27.2786 183.671 28.4522V50.7781Z" fill="white"/>
<path d="M176.005 31.5156H164.051C162.878 31.5156 161.926 32.467 161.926 33.6406V45.5914C161.926 46.765 162.878 47.7164 164.051 47.7164H176.005C177.178 47.7164 178.13 46.765 178.13 45.5914V33.6406C178.13 32.467 177.178 31.5156 176.005 31.5156Z" fill="white"/>
<path d="M20.0005 187.876C20.0005 189.049 20.9519 190.001 22.1255 190.001H57.1045C58.2781 190.001 59.2295 189.049 59.2295 187.876V152.895C59.2295 151.721 58.2781 150.77 57.1045 150.77H22.1255C20.9519 150.77 20.0005 151.721 20.0005 152.895V187.876ZM26.327 159.222C26.327 158.048 27.2784 157.097 28.452 157.097H50.7772C51.9508 157.097 52.9022 158.048 52.9022 159.222V181.55C52.9022 182.724 51.9508 183.675 50.7772 183.675H28.452C27.2784 183.675 26.327 182.724 26.327 181.55V159.222Z" fill="white"/>
<path d="M45.2372 162.285H33.2847C32.1111 162.285 31.1597 163.237 31.1597 164.41V176.362C31.1597 177.536 32.1111 178.487 33.2847 178.487H45.2372C46.4108 178.487 47.3622 177.536 47.3622 176.362V164.41C47.3622 163.237 46.4108 162.285 45.2372 162.285Z" fill="white"/>
<path d="M98.4595 152.894C98.4595 151.721 97.5081 150.769 96.3345 150.769H87.5069C86.3333 150.769 85.3819 149.818 85.3819 148.644V139.818C85.3819 138.645 86.3333 137.693 87.5069 137.693H96.3345C97.5081 137.693 98.4595 136.742 98.4595 135.568V124.616V113.666C98.4595 112.492 97.5081 111.541 96.3345 111.541H87.5069C86.3333 111.541 85.3819 110.59 85.3819 109.416V100.586C85.3819 99.4127 86.3333 98.4613 87.5069 98.4613H96.3345C97.5081 98.4613 98.4595 97.5099 98.4595 96.3363V87.5105C98.4595 86.3369 97.5081 85.3855 96.3345 85.3855H87.5069C86.3333 85.3855 85.3819 84.4341 85.3819 83.2605V72.3098V61.3554C85.3819 60.1818 86.3333 59.2304 87.5069 59.2304H96.3345C97.5081 59.2304 98.4595 58.279 98.4595 57.1054V46.1539V35.2031C98.4595 34.0295 97.5081 33.0781 96.3345 33.0781H87.5069C86.3333 33.0781 85.3819 34.0295 85.3819 35.2031V44.0289C85.3819 45.2025 84.4305 46.1539 83.2569 46.1539H74.4309C73.2573 46.1539 72.3059 47.1053 72.3059 48.2789V59.2304V70.1848C72.3059 71.3584 71.3545 72.3098 70.1809 72.3098H61.3539C60.1803 72.3098 59.2289 73.2612 59.2289 74.4348V83.2605C59.2289 84.4341 60.1803 85.3855 61.3539 85.3855H70.1809C71.3545 85.3855 72.3059 86.3369 72.3059 87.5105V96.3363C72.3059 97.5099 71.3545 98.4613 70.1809 98.4613H61.3539C60.1803 98.4613 59.2289 99.4127 59.2289 100.586V109.416C59.2289 110.59 60.1803 111.541 61.3539 111.541H70.1809C71.3545 111.541 72.3059 112.492 72.3059 113.666V122.491C72.3059 123.665 71.3545 124.616 70.1809 124.616H61.3539C60.1803 124.616 59.2289 123.665 59.2289 122.491V113.666C59.2289 112.492 58.2775 111.541 57.1039 111.541H46.1528H35.2017C34.0281 111.541 33.0767 112.492 33.0767 113.666V122.491C33.0767 123.665 34.0281 124.616 35.2017 124.616H44.0278C45.2014 124.616 46.1528 125.567 46.1528 126.741V135.568C46.1528 136.742 47.1042 137.693 48.2778 137.693H59.2289H70.1809C71.3545 137.693 72.3059 138.645 72.3059 139.818V150.769V161.721C72.3059 162.894 73.2573 163.846 74.4309 163.846H83.2569C84.4305 163.846 85.3819 164.797 85.3819 165.971V174.799C85.3819 175.972 86.3333 176.924 87.5069 176.924H96.3345C97.5081 176.924 98.4595 175.972 98.4595 174.799V163.846V152.894Z" fill="white"/>
<path d="M83.2577 176.924H74.4316C73.258 176.924 72.3066 177.875 72.3066 179.049V187.875C72.3066 189.049 73.258 190 74.4316 190H83.2577C84.4313 190 85.3827 189.049 85.3827 187.875V179.049C85.3827 177.875 84.4313 176.924 83.2577 176.924Z" fill="white"/>
<path d="M30.9523 124.615H22.1255C20.9519 124.615 20.0005 125.567 20.0005 126.74V135.568C20.0005 136.741 20.9519 137.693 22.1255 137.693H30.9523C32.1259 137.693 33.0773 136.741 33.0773 135.568V126.74C33.0773 125.567 32.1259 124.615 30.9523 124.615Z" fill="white"/>
<path d="M150.768 187.876C150.768 189.049 151.719 190.001 152.893 190.001H187.875C189.049 190.001 190 189.049 190 187.876V152.895C190 151.721 189.049 150.77 187.875 150.77H152.893C151.719 150.77 150.768 151.721 150.768 152.895V187.876ZM157.095 159.222C157.095 158.048 158.047 157.097 159.22 157.097H181.546C182.72 157.097 183.671 158.048 183.671 159.222V181.55C183.671 182.724 182.72 183.675 181.546 183.675H159.22C158.047 183.675 157.095 182.724 157.095 181.55V159.222Z" fill="white"/>
<path d="M176.005 162.285H164.051C162.878 162.285 161.926 163.237 161.926 164.41V176.362C161.926 177.536 162.878 178.487 164.051 178.487H176.005C177.178 178.487 178.13 177.536 178.13 176.362V164.41C178.13 163.237 177.178 162.285 176.005 162.285Z" fill="white"/>
</svg>
