<svg width="1440" height="815" viewBox="0 0 1440 815" fill="none" xmlns="http://www.w3.org/2000/svg">
<g clip-path="url(#clip0_449_282)">
<rect width="1440" height="815" fill="url(#paint0_linear_449_282)"/>
<path d="M254 0L254.54 1.45982L256 2L254.54 2.54018L254 4L253.46 2.54018L252 2L253.46 1.45982L254 0Z" fill="#4B4B4B"/>
<path d="M250.553 141.947L249.256 142.807L249.064 144.352L248.204 143.055L246.659 142.864L247.956 142.003L248.147 140.458L249.008 141.756L250.553 141.947Z" fill="#4B4B4B"/>
<path d="M2 598L2.54018 599.46L4 600L2.54018 600.54L2 602L1.45982 600.54L0 600L1.45982 599.46L2 598Z" fill="#4B4B4B"/>
<path d="M289 70L289.54 71.4598L291 72L289.54 72.5402L289 74L288.46 72.5402L287 72L288.46 71.4598L289 70Z" fill="#4B4B4B"/>
<path d="M113.262 230.785L111.965 231.646L111.774 233.191L110.913 231.894L109.369 231.702L110.666 230.842L110.857 229.297L111.717 230.594L113.262 230.785Z" fill="#4B4B4B"/>
<path d="M644.204 453L644.744 454.46L646.204 455L644.744 455.54L644.204 457L643.664 455.54L642.204 455L643.664 454.46L644.204 453Z" fill="#4B4B4B"/>
<path d="M37 668L37.5402 669.46L39 670L37.5402 670.54L37 672L36.4598 670.54L35 670L36.4598 669.46L37 668Z" fill="#4B4B4B"/>
<path d="M362 50L362.54 51.4598L364 52L362.54 52.5402L362 54L361.46 52.5402L360 52L361.46 51.4598L362 50Z" fill="#4B4B4B"/>
<path d="M149.464 297.257L148.167 298.117L147.976 299.662L147.116 298.365L145.571 298.174L146.868 297.313L147.059 295.768L147.92 297.065L149.464 297.257Z" fill="#4B4B4B"/>
<path d="M923.526 647.607L922.383 648.664L922.441 650.22L921.384 649.077L919.829 649.135L920.972 648.078L920.913 646.523L921.97 647.666L923.526 647.607Z" fill="#4B4B4B"/>
<path d="M110 648L110.54 649.46L112 650L110.54 650.54L110 652L109.46 650.54L108 650L109.46 649.46L110 648Z" fill="#4B4B4B"/>
<path d="M511 54L511.54 55.4598L513 56L511.54 56.5402L511 58L510.46 56.5402L509 56L510.46 55.4598L511 54Z" fill="#4B4B4B"/>
<path d="M315 272L315.54 273.46L317 274L315.54 274.54L315 276L314.46 274.54L313 274L314.46 273.46L315 272Z" fill="#4B4B4B"/>
<path d="M216 590L216.54 591.46L218 592L216.54 592.54L216 594L215.46 592.54L214 592L215.46 591.46L216 590Z" fill="#4B4B4B"/>
<path d="M660 58L660.54 59.4598L662 60L660.54 60.5402L660 62L659.46 60.5402L658 60L659.46 59.4598L660 58Z" fill="#4B4B4B"/>
<path d="M504 276L504.54 277.46L506 278L504.54 278.54L504 280L503.46 278.54L502 278L503.46 277.46L504 276Z" fill="#4B4B4B"/>
<path d="M740.97 690.663L740.764 692.206L741.802 693.367L740.259 693.161L739.099 694.199L739.304 692.656L738.267 691.495L739.809 691.701L740.97 690.663Z" fill="#4B4B4B"/>
<path d="M651.224 236.405L652.572 237.184L654.041 236.669L653.261 238.016L653.777 239.485L652.43 238.705L650.961 239.221L651.74 237.874L651.224 236.405Z" fill="#4B4B4B"/>
<path d="M791.461 563.686L790.318 564.742L790.376 566.298L789.319 565.155L787.764 565.213L788.907 564.156L788.848 562.601L789.905 563.744L791.461 563.686Z" fill="#4B4B4B"/>
<path d="M783.494 110.401L784.842 111.18L786.311 110.664L785.531 112.012L786.047 113.48L784.7 112.701L783.231 113.217L784.01 111.869L783.494 110.401Z" fill="#4B4B4B"/>
<path d="M526.174 640.748L527.522 641.527L528.99 641.011L528.211 642.359L528.727 643.827L527.379 643.048L525.911 643.564L526.69 642.216L526.174 640.748Z" fill="#4B4B4B"/>
<path d="M668.786 689.32L667.643 690.376L667.701 691.932L666.645 690.789L665.089 690.847L666.232 689.791L666.174 688.235L667.23 689.378L668.786 689.32Z" fill="#4B4B4B"/>
<path d="M845.764 52.3968L847.112 53.176L848.58 52.6603L847.801 54.0078L848.317 55.4765L846.969 54.6972L845.501 55.2129L846.28 53.8655L845.764 52.3968Z" fill="#4B4B4B"/>
<path d="M1052.29 554L1052.83 555.46L1054.29 556L1052.83 556.54L1052.29 558L1051.75 556.54L1050.29 556L1051.75 555.46L1052.29 554Z" fill="#4B4B4B"/>
<path d="M627.998 763.08L626.855 764.137L626.913 765.693L625.856 764.55L624.301 764.608L625.444 763.551L625.386 761.996L626.442 763.139L627.998 763.08Z" fill="#4B4B4B"/>
<path d="M1256 74L1256.54 75.4598L1258 76L1256.54 76.5402L1256 78L1255.46 76.5402L1254 76L1255.46 75.4598L1256 74Z" fill="#4B4B4B"/>
<path d="M1023.92 273.605L1025.27 274.385L1026.73 273.869L1025.95 275.216L1026.47 276.685L1025.12 275.906L1023.65 276.421L1024.43 275.074L1023.92 273.605Z" fill="#4B4B4B"/>
<path d="M1233 769.701L1233.54 771.161L1235 771.701L1233.54 772.241L1233 773.701L1232.46 772.241L1231 771.701L1232.46 771.161L1233 769.701Z" fill="#4B4B4B"/>
<path d="M1405 78L1405.54 79.4598L1407 80L1405.54 80.5402L1405 82L1404.46 80.5402L1403 80L1404.46 79.4598L1405 78Z" fill="#4B4B4B"/>
<path d="M1252 358L1252.54 359.46L1254 360L1252.54 360.54L1252 362L1251.46 360.54L1250 360L1251.46 359.46L1252 358Z" fill="#4B4B4B"/>
<path d="M1382 773.701L1382.54 775.161L1384 775.701L1382.54 776.241L1382 777.701L1381.46 776.241L1380 775.701L1381.46 775.161L1382 773.701Z" fill="#4B4B4B"/>
<path d="M1260.54 661.848L1259.39 662.905L1259.45 664.461L1258.39 663.318L1256.84 663.376L1257.98 662.319L1257.92 660.764L1258.98 661.907L1260.54 661.848Z" fill="#4B4B4B"/>
<path d="M397 120L397.54 121.46L399 122L397.54 122.54L397 124L396.46 122.54L395 122L396.46 121.46L397 120Z" fill="#4B4B4B"/>
<path d="M89.352 347.372L88.0549 348.232L87.8638 349.777L87.0033 348.48L85.4586 348.289L86.7557 347.428L86.9468 345.883L87.8073 347.18L89.352 347.372Z" fill="#4B4B4B"/>
<path d="M145 718L145.54 719.46L147 720L145.54 720.54L145 722L144.46 720.54L143 720L144.46 719.46L145 718Z" fill="#4B4B4B"/>
<path d="M586 124L586.54 125.46L588 126L586.54 126.54L586 128L585.46 126.54L584 126L585.46 125.46L586 124Z" fill="#4B4B4B"/>
<path d="M350 342L350.54 343.46L352 344L350.54 344.54L350 346L349.46 344.54L348 344L349.46 343.46L350 342Z" fill="#4B4B4B"/>
<path d="M801.445 806.787L800.302 807.844L800.36 809.4L799.303 808.257L797.748 808.315L798.891 807.258L798.832 805.703L799.889 806.846L801.445 806.787Z" fill="#4B4B4B"/>
<path d="M251 660L251.54 661.46L253 662L251.54 662.54L251 664L250.46 662.54L249 662L250.46 661.46L251 660Z" fill="#4B4B4B"/>
<path d="M750 94L750.54 95.4598L752 96L750.54 96.5402L750 98L749.46 96.5402L748 96L749.46 95.4598L750 94Z" fill="#4B4B4B"/>
<path d="M420 632L420.54 633.46L422 634L420.54 634.54L420 636L419.46 634.54L418 634L419.46 633.46L420 632Z" fill="#4B4B4B"/>
<path d="M682.842 267.964L684.189 268.743L685.658 268.227L684.878 269.575L685.394 271.044L684.047 270.264L682.578 270.78L683.357 269.433L682.842 267.964Z" fill="#4B4B4B"/>
<path d="M1006.46 604.933L1005.32 605.99L1005.38 607.545L1004.32 606.403L1002.76 606.461L1003.91 605.404L1003.85 603.849L1004.91 604.991L1006.46 604.933Z" fill="#4B4B4B"/>
<path d="M855.112 141.96L856.459 142.739L857.928 142.223L857.149 143.571L857.664 145.039L856.317 144.26L854.848 144.776L855.627 143.428L855.112 141.96Z" fill="#4B4B4B"/>
<path d="M833.995 376.172L835.343 376.952L836.812 376.436L836.032 377.783L836.548 379.252L835.201 378.473L833.732 378.989L834.511 377.641L833.995 376.172Z" fill="#4B4B4B"/>
<path d="M617.461 748.402L616.318 749.458L616.376 751.014L615.319 749.871L613.764 749.929L614.907 748.873L614.848 747.317L615.905 748.46L617.461 748.402Z" fill="#4B4B4B"/>
<path d="M1142 140L1142.54 141.46L1144 142L1142.54 142.54L1142 144L1141.46 142.54L1140 142L1141.46 141.46L1142 140Z" fill="#4B4B4B"/>
<path d="M929 362L929.54 363.46L931 364L929.54 364.54L929 366L928.46 364.54L927 364L928.46 363.46L929 362Z" fill="#4B4B4B"/>
<path d="M1291 144L1291.54 145.46L1293 146L1291.54 146.54L1291 148L1290.46 146.54L1289 146L1290.46 145.46L1291 144Z" fill="#4B4B4B"/>
<path d="M1415 453.998L1413.85 455.055L1413.91 456.61L1412.86 455.467L1411.3 455.526L1412.44 454.469L1412.39 452.914L1413.44 454.056L1415 453.998Z" fill="#4B4B4B"/>
<path d="M1440 148L1440.54 149.46L1442 150L1440.54 150.54L1440 152L1439.46 150.54L1438 150L1439.46 149.46L1440 148Z" fill="#4B4B4B"/>
<path d="M1287 428L1287.54 429.46L1289 430L1287.54 430.54L1287 432L1286.46 430.54L1285 430L1286.46 429.46L1287 428Z" fill="#4B4B4B"/>
<path d="M1209.21 720.93L1208.07 721.987L1208.13 723.543L1207.07 722.4L1205.51 722.458L1206.66 721.401L1206.6 719.846L1207.65 720.989L1209.21 720.93Z" fill="#4B4B4B"/>
<path d="M472 190L472.54 191.46L474 192L472.54 192.54L472 194L471.46 192.54L470 192L471.46 191.46L472 190Z" fill="#4B4B4B"/>
<path d="M299 554L299.54 555.46L301 556L299.54 556.54L299 558L298.46 556.54L297 556L298.46 555.46L299 554Z" fill="#4B4B4B"/>
<path d="M180 788L180.54 789.46L182 790L180.54 790.54L180 792L179.46 790.54L178 790L179.46 789.46L180 788Z" fill="#4B4B4B"/>
<path d="M621 194L621.54 195.46L623 196L621.54 196.54L621 198L620.46 196.54L619 196L620.46 195.46L621 194Z" fill="#4B4B4B"/>
<path d="M385 412L385.54 413.46L387 414L385.54 414.54L385 416L384.46 414.54L383 414L384.46 413.46L385 412Z" fill="#4B4B4B"/>
<path d="M860.565 765.876L859.422 766.933L859.48 768.488L858.424 767.346L856.868 767.404L858.011 766.347L857.953 764.792L859.009 765.935L860.565 765.876Z" fill="#4B4B4B"/>
<path d="M684.835 516.484L683.692 517.541L683.751 519.096L682.694 517.953L681.138 518.012L682.281 516.955L682.223 515.399L683.28 516.542L684.835 516.484Z" fill="#4B4B4B"/>
<path d="M504.639 521.857L504.433 523.4L505.471 524.56L503.928 524.355L502.767 525.392L502.973 523.849L501.935 522.689L503.478 522.895L504.639 521.857Z" fill="#4B4B4B"/>
<path d="M402.478 768.245L401.335 769.302L401.393 770.858L400.336 769.715L398.781 769.773L399.924 768.716L399.865 767.161L400.922 768.304L402.478 768.245Z" fill="#4B4B4B"/>
<path d="M871.729 207.519L873.076 208.298L874.545 207.782L873.766 209.13L874.281 210.598L872.934 209.819L871.465 210.335L872.244 208.987L871.729 207.519Z" fill="#4B4B4B"/>
<path d="M484.796 658.663L485.336 660.123L486.796 660.663L485.336 661.203L484.796 662.663L484.256 661.203L482.796 660.663L484.256 660.123L484.796 658.663Z" fill="#4B4B4B"/>
<path d="M1177 210L1177.54 211.46L1179 212L1177.54 212.54L1177 214L1176.46 212.54L1175 212L1176.46 211.46L1177 210Z" fill="#4B4B4B"/>
<path d="M964 432L964.54 433.46L966 434L964.54 434.54L964 436L963.46 434.54L962 434L963.46 433.46L964 432Z" fill="#4B4B4B"/>
<path d="M1310.46 373.848L1309.32 374.905L1309.38 376.461L1308.32 375.318L1306.76 375.376L1307.91 374.319L1307.85 372.764L1308.91 373.907L1310.46 373.848Z" fill="#4B4B4B"/>
<path d="M1326 214L1326.54 215.46L1328 216L1326.54 216.54L1326 218L1325.46 216.54L1324 216L1325.46 215.46L1326 214Z" fill="#4B4B4B"/>
<path d="M1173 494L1173.54 495.46L1175 496L1173.54 496.54L1173 498L1172.46 496.54L1171 496L1172.46 495.46L1173 494Z" fill="#4B4B4B"/>
<path d="M1363.67 513.08L1362.53 514.137L1362.59 515.693L1361.53 514.55L1359.98 514.608L1361.12 513.551L1361.06 511.996L1362.12 513.139L1363.67 513.08Z" fill="#4B4B4B"/>
<path d="M1322 498L1322.54 499.46L1324 500L1322.54 500.54L1322 502L1321.46 500.54L1320 500L1321.46 499.46L1322 498Z" fill="#4B4B4B"/>
<path d="M1126.18 568.312L1125.03 569.369L1125.09 570.924L1124.04 569.781L1122.48 569.84L1123.62 568.783L1123.56 567.227L1124.62 568.37L1126.18 568.312Z" fill="#4B4B4B"/>
</g>
<defs>
<linearGradient id="paint0_linear_449_282" x1="720" y1="0" x2="720" y2="815" gradientUnits="userSpaceOnUse">
<stop stop-color="#030407"/>
<stop offset="1" stop-color="#111827"/>
</linearGradient>
<clipPath id="clip0_449_282">
<rect width="1440" height="815" fill="white"/>
</clipPath>
</defs>
</svg>
