<svg width="41" height="40" viewBox="0 0 41 40" fill="none" xmlns="http://www.w3.org/2000/svg">
<path d="M14.0833 10C14.0833 9.66848 14.2149 9.35054 14.4494 9.11612C14.6838 8.8817 15.0017 8.75 15.3333 8.75H34.0833C34.4148 8.75 34.7327 8.8817 34.9671 9.11612C35.2016 9.35054 35.3333 9.66848 35.3333 10C35.3333 10.3315 35.2016 10.6495 34.9671 10.8839C34.7327 11.1183 34.4148 11.25 34.0833 11.25H15.3333C15.0017 11.25 14.6838 11.1183 14.4494 10.8839C14.2149 10.6495 14.0833 10.3315 14.0833 10ZM34.0833 18.75H15.3333C15.0017 18.75 14.6838 18.8817 14.4494 19.1161C14.2149 19.3505 14.0833 19.6685 14.0833 20C14.0833 20.3315 14.2149 20.6495 14.4494 20.8839C14.6838 21.1183 15.0017 21.25 15.3333 21.25H34.0833C34.4148 21.25 34.7327 21.1183 34.9671 20.8839C35.2016 20.6495 35.3333 20.3315 35.3333 20C35.3333 19.6685 35.2016 19.3505 34.9671 19.1161C34.7327 18.8817 34.4148 18.75 34.0833 18.75ZM34.0833 28.75H15.3333C15.0017 28.75 14.6838 28.8817 14.4494 29.1161C14.2149 29.3505 14.0833 29.6685 14.0833 30C14.0833 30.3315 14.2149 30.6495 14.4494 30.8839C14.6838 31.1183 15.0017 31.25 15.3333 31.25H34.0833C34.4148 31.25 34.7327 31.1183 34.9671 30.8839C35.2016 30.6495 35.3333 30.3315 35.3333 30C35.3333 29.6685 35.2016 29.3505 34.9671 29.1161C34.7327 28.8817 34.4148 28.75 34.0833 28.75ZM9.08325 8.75H6.58325C6.25173 8.75 5.93379 8.8817 5.69937 9.11612C5.46495 9.35054 5.33325 9.66848 5.33325 10C5.33325 10.3315 5.46495 10.6495 5.69937 10.8839C5.93379 11.1183 6.25173 11.25 6.58325 11.25H9.08325C9.41477 11.25 9.73271 11.1183 9.96714 10.8839C10.2016 10.6495 10.3333 10.3315 10.3333 10C10.3333 9.66848 10.2016 9.35054 9.96714 9.11612C9.73271 8.8817 9.41477 8.75 9.08325 8.75ZM9.08325 18.75H6.58325C6.25173 18.75 5.93379 18.8817 5.69937 19.1161C5.46495 19.3505 5.33325 19.6685 5.33325 20C5.33325 20.3315 5.46495 20.6495 5.69937 20.8839C5.93379 21.1183 6.25173 21.25 6.58325 21.25H9.08325C9.41477 21.25 9.73271 21.1183 9.96714 20.8839C10.2016 20.6495 10.3333 20.3315 10.3333 20C10.3333 19.6685 10.2016 19.3505 9.96714 19.1161C9.73271 18.8817 9.41477 18.75 9.08325 18.75ZM9.08325 28.75H6.58325C6.25173 28.75 5.93379 28.8817 5.69937 29.1161C5.46495 29.3505 5.33325 29.6685 5.33325 30C5.33325 30.3315 5.46495 30.6495 5.69937 30.8839C5.93379 31.1183 6.25173 31.25 6.58325 31.25H9.08325C9.41477 31.25 9.73271 31.1183 9.96714 30.8839C10.2016 30.6495 10.3333 30.3315 10.3333 30C10.3333 29.6685 10.2016 29.3505 9.96714 29.1161C9.73271 28.8817 9.41477 28.75 9.08325 28.75Z" fill="#8398AD"/>
</svg>
