<svg width="18" height="18" viewBox="0 0 18 18" fill="none" xmlns="http://www.w3.org/2000/svg">
<path d="M15.0996 14.8859L10.698 7.96852L15.0412 3.19078C15.1395 3.08006 15.1901 2.93508 15.1821 2.78727C15.1742 2.63947 15.1083 2.50076 14.9988 2.40121C14.8892 2.30166 14.7449 2.2493 14.597 2.25548C14.4491 2.26166 14.3096 2.32588 14.2087 2.43422L10.0716 6.98484L7.2246 2.51086C7.17383 2.43095 7.10372 2.36515 7.02075 2.31955C6.93779 2.27395 6.84466 2.25003 6.74999 2.25H3.37499C3.27413 2.24995 3.17512 2.27702 3.08832 2.32837C3.00151 2.37972 2.93011 2.45347 2.88159 2.54188C2.83307 2.6303 2.80921 2.73014 2.81252 2.83094C2.81582 2.93174 2.84617 3.0298 2.90038 3.11484L7.30194 10.0315L2.95874 14.8127C2.90802 14.8672 2.86862 14.9312 2.84282 15.001C2.81702 15.0709 2.80534 15.1451 2.80844 15.2195C2.81155 15.2939 2.82939 15.3669 2.86092 15.4343C2.89246 15.5017 2.93706 15.5622 2.99214 15.6123C3.04723 15.6623 3.11171 15.701 3.18183 15.7259C3.25196 15.7509 3.32634 15.7617 3.40067 15.7577C3.475 15.7537 3.5478 15.735 3.61484 15.7026C3.68188 15.6703 3.74184 15.625 3.79124 15.5693L7.92843 11.0187L10.7754 15.4927C10.8266 15.5719 10.8969 15.637 10.9798 15.682C11.0627 15.727 11.1556 15.7503 11.25 15.75H14.625C14.7257 15.75 14.8246 15.7229 14.9113 15.6716C14.998 15.6202 15.0693 15.5466 15.1178 15.4583C15.1663 15.37 15.1902 15.2703 15.187 15.1696C15.1838 15.0689 15.1536 14.9709 15.0996 14.8859ZM11.5587 14.625L4.39944 3.375H6.4385L13.6005 14.625H11.5587Z" fill="white"/>
</svg>
